<?xml version="1.0" encoding="utf-8"?>
<!-- Generator: Adobe Illustrator 19.2.1, SVG Export Plug-In . SVG Version: 6.00 Build 0)  -->
<svg version="1.1" id="Ebene_1" xmlns="http://www.w3.org/2000/svg" xmlns:xlink="http://www.w3.org/1999/xlink" x="0px" y="0px"
	 viewBox="0 0 566.9 340.2" style="enable-background:new 0 0 566.9 340.2;" xml:space="preserve">
<style type="text/css">
	.st0{fill:#5F5CA9;}
	.st1{fill:url(#SVGID_1_);}
	.st2{fill:url(#SVGID_2_);}
	.st3{fill:url(#SVGID_3_);}
	.st4{fill:#FED8B6;}
	.st5{fill:url(#SVGID_4_);}
	.st6{fill:url(#SVGID_5_);}
	.st7{fill:url(#SVGID_6_);}
	.st8{fill:url(#SVGID_7_);}
	.st9{fill:url(#SVGID_8_);}
	.st10{fill:url(#SVGID_9_);}
	.st11{fill:url(#SVGID_10_);}
	.st12{fill:url(#SVGID_11_);}
	.st13{fill:url(#SVGID_12_);}
	.st14{fill:url(#SVGID_13_);}
	.st15{fill:url(#SVGID_14_);}
	.st16{fill:url(#SVGID_15_);}
	.st17{fill:url(#SVGID_16_);}
	.st18{fill:url(#SVGID_17_);}
	.st19{fill:url(#SVGID_18_);}
	.st20{fill:url(#SVGID_19_);}
	.st21{fill:url(#SVGID_20_);}
	.st22{fill:url(#SVGID_21_);}
	.st23{fill:#F1F2F2;stroke:#000000;stroke-width:0.25;stroke-miterlimit:10;}
	.st24{fill:url(#SVGID_22_);stroke:#000000;stroke-width:0.25;stroke-miterlimit:10;}
</style>
<g>
	<rect x="390.9" y="152.7" width="75" height="119.4"/>
	<ellipse class="st0" cx="282.7" cy="321.2" rx="276.3" ry="18.2"/>
	<g>
		<g>
			
				<linearGradient id="SVGID_1_" gradientUnits="userSpaceOnUse" x1="-6803.8438" y1="-739.8887" x2="-6803.8438" y2="-576.3716" gradientTransform="matrix(-0.7645 0.6447 -0.6447 -0.7645 -5391.0566 4108.939)">
				<stop  offset="0" style="stop-color:#2A307C"/>
				<stop  offset="2.514958e-002" style="stop-color:#292F78"/>
				<stop  offset="0.1548" style="stop-color:#232964"/>
				<stop  offset="0.2919" style="stop-color:#1C2253"/>
				<stop  offset="0.4367" style="stop-color:#151D47"/>
				<stop  offset="0.5925" style="stop-color:#10183E"/>
				<stop  offset="0.7672" style="stop-color:#0D1539"/>
				<stop  offset="1" style="stop-color:#0B1438"/>
			</linearGradient>
			<path class="st1" d="M206.4,150.8c19.8,14,36.5,32.3,52.3,50.5c7.9,9,31.5,46.4,38.7,56c13.6,18.2,7.3,17.9-17.1,30.9
				c-3.1,1.6-6.5,2.7-9.9,3c-41,4.2-59.9-49.5-72.2-78.4c-5.3-12.5-11.1-28-15.7-40.9C186,149,206.4,150.8,206.4,150.8z"/>
			
				<linearGradient id="SVGID_2_" gradientUnits="userSpaceOnUse" x1="-4709.2803" y1="-1618.9448" x2="-4709.2803" y2="-1455.4193" gradientTransform="matrix(0.2615 0.9652 -0.9652 0.2615 22.7259 5241.9702)">
				<stop  offset="0" style="stop-color:#2A307C"/>
				<stop  offset="2.514958e-002" style="stop-color:#292F78"/>
				<stop  offset="0.1548" style="stop-color:#232964"/>
				<stop  offset="0.2919" style="stop-color:#1C2253"/>
				<stop  offset="0.4367" style="stop-color:#151D47"/>
				<stop  offset="0.5925" style="stop-color:#10183E"/>
				<stop  offset="0.7672" style="stop-color:#0D1539"/>
				<stop  offset="1" style="stop-color:#0B1438"/>
			</linearGradient>
			<path class="st2" d="M195.1,288.7c21-12,44.7-19.5,67.8-26.1c11.5-3.3,55.4-9,67.1-11.4c22.2-4.7,19.3,1,20.8,28.6
				c0.2,3.5-0.3,7-1.5,10.3c-13.5,38.9-70.2,33.4-101.6,32.3c-13.6-0.4-30.1-1.8-43.7-3.1C184.9,306.4,195.1,288.7,195.1,288.7z"/>
			<g>
				
					<linearGradient id="SVGID_3_" gradientUnits="userSpaceOnUse" x1="-3246.9648" y1="174.0267" x2="-3246.9648" y2="107.3977" gradientTransform="matrix(0.9924 0.1228 -0.1228 0.9924 3385.2839 537.9434)">
					<stop  offset="0" style="stop-color:#FCD1C2"/>
					<stop  offset="0.3786" style="stop-color:#FCCFC0"/>
					<stop  offset="0.5763" style="stop-color:#FBC8B8"/>
					<stop  offset="0.7322" style="stop-color:#FABEAB"/>
					<stop  offset="0.8661" style="stop-color:#F9AE99"/>
					<stop  offset="0.9849" style="stop-color:#F79C83"/>
					<stop  offset="1" style="stop-color:#F79980"/>
				</linearGradient>
				<path class="st3" d="M186.9,297.5c0-2-0.5-4.1-1-6.2c-0.1-0.6-1-6.2-0.9-6.8c0.9-8.8,6-32.8,6-32.8l-24.2-3.8
					c0,0,0.4,21.5-4.8,33.3l0,0c-11.6,4.4-31.9,9.6-31.9,9.6s-22.1,0.4-23.3,0.7c-1.2,0.3-4.1,0.7-7.8,3.2c0,0-3.3,5.2,23.1,13.4
					c0,0,11.3,4.3,30.5,4c4.1,0.2,8.2,0.5,12.3,0.7c4.2,0.2,16.8,1.6,18.6,0.7c0.7-0.4,1.2-0.8,1.6-1.2
					C187.9,308.8,186.8,301.7,186.9,297.5z"/>
				<path class="st4" d="M177.5,269.9c0.3,1.4,0.5,2.8,0.7,4.2c0.7-1.2,1.3-2.5,1.9-3.8L177.5,269.9z"/>
				
					<linearGradient id="SVGID_4_" gradientUnits="userSpaceOnUse" x1="-3291.3203" y1="159.0901" x2="-3202.6091" y2="159.0901" gradientTransform="matrix(0.9924 0.1228 -0.1228 0.9924 3385.2839 537.9434)">
					<stop  offset="0" style="stop-color:#2A307C"/>
					<stop  offset="2.514958e-002" style="stop-color:#292F78"/>
					<stop  offset="0.1548" style="stop-color:#232964"/>
					<stop  offset="0.2919" style="stop-color:#1C2253"/>
					<stop  offset="0.4367" style="stop-color:#151D47"/>
					<stop  offset="0.5925" style="stop-color:#10183E"/>
					<stop  offset="0.7672" style="stop-color:#0D1539"/>
					<stop  offset="1" style="stop-color:#0B1438"/>
				</linearGradient>
				<path class="st5" d="M185.9,291.3c-0.1-0.3-0.4-2.3-0.6-4.1c-1,0.4-2,0.7-2.9,1c-11.1,3.7-22.2,1.6-32.9-2.4
					c-0.2-0.1-0.4-0.2-0.6-0.2c-9.5,2.9-18.7,5.2-18.7,5.2s-22.1,0.4-23.3,0.7c-1.2,0.3-4.1,0.7-7.8,3.2c0,0-3.3,5.2,23.1,13.4
					c0,0,11.3,4.3,30.5,4c4.1,0.2,8.2,0.5,12.3,0.7c4.2,0.2,16.8,1.6,18.6,0.7c0.7-0.4,1.2-0.8,1.6-1.2c2.7-3.5,1.7-10.6,1.8-14.8
					C186.9,295.5,186.4,293.3,185.9,291.3z"/>
				
					<linearGradient id="SVGID_5_" gradientUnits="userSpaceOnUse" x1="-3215.8835" y1="120.0173" x2="-3215.8835" y2="-16.4555" gradientTransform="matrix(0.9924 0.1228 -0.1228 0.9924 3385.2839 537.9434)">
					<stop  offset="0" style="stop-color:#2A307C"/>
					<stop  offset="2.514958e-002" style="stop-color:#292F78"/>
					<stop  offset="0.1548" style="stop-color:#232964"/>
					<stop  offset="0.2919" style="stop-color:#1C2253"/>
					<stop  offset="0.4367" style="stop-color:#151D47"/>
					<stop  offset="0.5925" style="stop-color:#10183E"/>
					<stop  offset="0.7672" style="stop-color:#0D1539"/>
					<stop  offset="1" style="stop-color:#0B1438"/>
				</linearGradient>
				<path class="st6" d="M193.8,150.6c-0.1,0-0.1,0-0.2,0c-11-0.3-20.3,8-21.4,18.9c-2.6,26.8-6.2,66.5-8.3,89.1l24.9,4.7
					c7.1-22.4,12.9-45.3,16.7-68.5c1.6-10.1,3.3-26.7,3.7-36.9c0.1-1.9-3-5.1-2.9-7.2C201.3,150,199.3,150.8,193.8,150.6z"/>
			</g>
			
				<linearGradient id="SVGID_6_" gradientUnits="userSpaceOnUse" x1="-3041.0415" y1="304.3935" x2="-3049.8865" y2="299.2869" gradientTransform="matrix(0.9972 -7.540000e-002 7.540000e-002 0.9972 3268.4541 -431.0983)">
				<stop  offset="0" style="stop-color:#E1B691"/>
				<stop  offset="1" style="stop-color:#EF9367"/>
			</linearGradient>
			<polygon class="st7" points="253.2,89.9 257.9,103.9 249.8,106.5 			"/>
			
				<linearGradient id="SVGID_7_" gradientUnits="userSpaceOnUse" x1="-2993.1333" y1="325.6487" x2="-3023.0427" y2="308.3805" gradientTransform="matrix(0.9972 -7.540000e-002 7.540000e-002 0.9972 3268.4541 -431.0983)">
				<stop  offset="0" style="stop-color:#FCD1C2"/>
				<stop  offset="0.3786" style="stop-color:#FCCFC0"/>
				<stop  offset="0.5763" style="stop-color:#FBC8B8"/>
				<stop  offset="0.7322" style="stop-color:#FABEAB"/>
				<stop  offset="0.8661" style="stop-color:#F9AE99"/>
				<stop  offset="0.9849" style="stop-color:#F79C83"/>
				<stop  offset="1" style="stop-color:#F79980"/>
			</linearGradient>
			<path class="st8" d="M277.6,103.3c0.3,4.6,1.4,31.4,1.4,31.4c3,2.9,16.4,3,21.7-2.2c4.2-4.1,4.4-7.6,4.4-7.6l-4.6-39L277.6,103.3
				z"/>
			
				<linearGradient id="SVGID_8_" gradientUnits="userSpaceOnUse" x1="-2996.9951" y1="305.1331" x2="-3052.1729" y2="273.2763" gradientTransform="matrix(0.9972 -7.540000e-002 7.540000e-002 0.9972 3268.4541 -431.0983)">
				<stop  offset="0" style="stop-color:#FCD1C2"/>
				<stop  offset="0.3786" style="stop-color:#FCCFC0"/>
				<stop  offset="0.5763" style="stop-color:#FBC8B8"/>
				<stop  offset="0.7322" style="stop-color:#FABEAB"/>
				<stop  offset="0.8661" style="stop-color:#F9AE99"/>
				<stop  offset="0.9849" style="stop-color:#F79C83"/>
				<stop  offset="1" style="stop-color:#F79980"/>
			</linearGradient>
			<path class="st9" d="M296.3,56.5l2.5,13.8l3.8,21.1l1.1,5.9c-11.8,24.1-34.1,28.2-41.9,21.1c-7.9-7.1-14.5-50.8-14.5-50.8
				L296.3,56.5z"/>
			
				<linearGradient id="SVGID_9_" gradientUnits="userSpaceOnUse" x1="187.7917" y1="285.4431" x2="270.8098" y2="285.4431" gradientTransform="matrix(-0.9972 7.540000e-002 7.540000e-002 0.9972 480.3684 -220.0939)">
				<stop  offset="0" style="stop-color:#2A307C"/>
				<stop  offset="2.514958e-002" style="stop-color:#292F78"/>
				<stop  offset="0.1548" style="stop-color:#232964"/>
				<stop  offset="0.2919" style="stop-color:#1C2253"/>
				<stop  offset="0.4367" style="stop-color:#151D47"/>
				<stop  offset="0.5925" style="stop-color:#10183E"/>
				<stop  offset="0.7672" style="stop-color:#0D1539"/>
				<stop  offset="1" style="stop-color:#0B1438"/>
			</linearGradient>
			<path class="st10" d="M294.8,118c0,0-19.8-34.8-25.4-37.4c-5.5-2.6-23,3-33.6-10.5c-10.4-13.3-5.3-21-1.7-22
				c3.6-1,11.6,12.2,23.2,3.1c11.9-9.3,37.3-11.2,42-1.5c0,0,16.1,0.4,14.2,22.4c-1.8,22-6.5,40.7-11.6,42.7L294.8,118z"/>
			
				<linearGradient id="SVGID_10_" gradientUnits="userSpaceOnUse" x1="-3014.3757" y1="299.0227" x2="-3028.8347" y2="290.6749" gradientTransform="matrix(0.9972 -7.540000e-002 7.540000e-002 0.9972 3268.4541 -431.0983)">
				<stop  offset="0" style="stop-color:#FCD1C2"/>
				<stop  offset="0.3786" style="stop-color:#FCCFC0"/>
				<stop  offset="0.5763" style="stop-color:#FBC8B8"/>
				<stop  offset="0.7322" style="stop-color:#FABEAB"/>
				<stop  offset="0.8661" style="stop-color:#F9AE99"/>
				<stop  offset="0.9849" style="stop-color:#F79C83"/>
				<stop  offset="1" style="stop-color:#F79980"/>
			</linearGradient>
			<path class="st11" d="M281.4,79.5c5.8,4,6.5,16.7-3.5,24.6L272,83.5C272.3,80.3,277.6,76.9,281.4,79.5z"/>
			
				<linearGradient id="SVGID_11_" gradientUnits="userSpaceOnUse" x1="266.6986" y1="467.5592" x2="155.8154" y2="356.6761" gradientTransform="matrix(-0.9972 7.540000e-002 7.540000e-002 0.9972 480.3684 -220.0939)">
				<stop  offset="0" style="stop-color:#6D64AC"/>
				<stop  offset="0.2988" style="stop-color:#7781BF"/>
				<stop  offset="0.6137" style="stop-color:#819ED2"/>
				<stop  offset="0.8581" style="stop-color:#88B2DF"/>
				<stop  offset="1" style="stop-color:#8BB9E4"/>
			</linearGradient>
			<path class="st12" d="M303.4,125.9c-15.1,1.8-38.9,6.2-43.3,23.7c-2.3,9.3-2,19.2-0.3,28.6c1.3,7.4,2.5,14.7,3.4,22.2
				c1.5,12.6,3.2,26.7-0.2,39.1l-14.2,26c0,0,68.9,30.4,103-9.9c0,0-2.2-100.2-18.2-123.7c-1.9-2.9-6.8-4.1-9.9-4.9
				C316.9,125.3,310.1,125.1,303.4,125.9z"/>
			<linearGradient id="SVGID_12_" gradientUnits="userSpaceOnUse" x1="300.833" y1="220.8823" x2="347.431" y2="172.59">
				<stop  offset="0" style="stop-color:#6D64AC"/>
				<stop  offset="0.2988" style="stop-color:#7781BF"/>
				<stop  offset="0.6137" style="stop-color:#819ED2"/>
				<stop  offset="0.8581" style="stop-color:#88B2DF"/>
				<stop  offset="1" style="stop-color:#8BB9E4"/>
			</linearGradient>
			<path class="st13" d="M333.6,131.9c-1.9-2.9-6.8-4.1-9.9-4.9c-5.1-1.3-10.3-1.7-15.4-1.5v150.7c15.2-1.2,31.1-6,43.4-20.6
				C351.8,255.6,349.6,155.4,333.6,131.9z"/>
			<g>
				<g>
					
						<linearGradient id="SVGID_13_" gradientUnits="userSpaceOnUse" x1="-65.0568" y1="484.4202" x2="-89.7576" y2="576.3799" gradientTransform="matrix(0.9435 -0.3315 0.3315 0.9435 126.3233 -318.2104)">
						<stop  offset="0" style="stop-color:#FCD1C2"/>
						<stop  offset="0.3786" style="stop-color:#FCCFC0"/>
						<stop  offset="0.5763" style="stop-color:#FBC8B8"/>
						<stop  offset="0.7322" style="stop-color:#FABEAB"/>
						<stop  offset="0.8661" style="stop-color:#F9AE99"/>
						<stop  offset="0.9849" style="stop-color:#F79C83"/>
						<stop  offset="1" style="stop-color:#F79980"/>
					</linearGradient>
					<path class="st14" d="M179,163.9c0,0,1.6,13,9.2,21.7c7.6,8.7,16.3,12.1,23.4,21.3c5.6,7.2,61.3,60.6,67,41.2
						c0.7-2.6-0.2-5.3-1.2-7.7c-9.5-23-32.5-32.8-52.6-44.9l-7.6-5.1c0,0-3.3-13.1-11.4-20.3L179,163.9z"/>
					
						<linearGradient id="SVGID_14_" gradientUnits="userSpaceOnUse" x1="158.6819" y1="355.8207" x2="214.4445" y2="355.8207" gradientTransform="matrix(0.9972 -7.540000e-002 7.540000e-002 0.9972 -25.5657 -182.0806)">
						<stop  offset="0" style="stop-color:#1C164A"/>
						<stop  offset="0.1697" style="stop-color:#1E194E"/>
						<stop  offset="0.3755" style="stop-color:#252359"/>
						<stop  offset="0.6" style="stop-color:#30326C"/>
						<stop  offset="0.8361" style="stop-color:#3F4789"/>
						<stop  offset="1" style="stop-color:#4B5AA8"/>
					</linearGradient>
					<path class="st15" d="M176.4,131.7l-16.7,18.9c-1.2,1.3-1.1,3.3,0.3,4.5l34,30.8c1.3,1.2,3.4,1.1,4.5-0.2l16.4-18.1
						c1.2-1.3,1.1-3.3-0.2-4.5l-33.7-31.6C179.7,130.2,177.7,130.3,176.4,131.7z"/>
					<g>
						
							<linearGradient id="SVGID_15_" gradientUnits="userSpaceOnUse" x1="162.8296" y1="353.9001" x2="206.5457" y2="353.9001" gradientTransform="matrix(0.9972 -7.540000e-002 7.540000e-002 0.9972 -25.5657 -182.0806)">
							<stop  offset="4.569890e-002" style="stop-color:#F8F2F8"/>
							<stop  offset="0.2324" style="stop-color:#F3F0F8"/>
							<stop  offset="0.412" style="stop-color:#E7EAF6"/>
							<stop  offset="0.5889" style="stop-color:#D3E0F3"/>
							<stop  offset="0.764" style="stop-color:#B8D3EF"/>
							<stop  offset="0.9364" style="stop-color:#94C4E9"/>
							<stop  offset="1" style="stop-color:#84BEE7"/>
						</linearGradient>
						<path class="st16" d="M163,152.7l29,26.3l15.5-17.1l-28.7-27.2L163,152.7z"/>
					</g>
					
						<linearGradient id="SVGID_16_" gradientUnits="userSpaceOnUse" x1="-90.3549" y1="509.1431" x2="-99.3062" y2="475.6544" gradientTransform="matrix(0.9435 -0.3315 0.3315 0.9435 126.3233 -318.2104)">
						<stop  offset="0" style="stop-color:#FCD1C2"/>
						<stop  offset="0.3786" style="stop-color:#FCCFC0"/>
						<stop  offset="0.5763" style="stop-color:#FBC8B8"/>
						<stop  offset="0.7322" style="stop-color:#FABEAB"/>
						<stop  offset="0.8661" style="stop-color:#F9AE99"/>
						<stop  offset="0.9849" style="stop-color:#F79C83"/>
						<stop  offset="1" style="stop-color:#F79980"/>
					</linearGradient>
					<path class="st17" d="M196.2,185.8c0,0,2.5-1.5,1.5-6.4c-1-4.8-3.3-16.2-3.3-16.2s0-4.1,1.6-3.2c1.6,0.9,5.1,3.4,6.4,10.5
						c0,0,1.4,6.1,3,7.6c1.6,1.6,5.7,5.8,6.4,12.5C211.9,190.7,200.4,194.6,196.2,185.8z"/>
				</g>
				<g>
					
						<linearGradient id="SVGID_17_" gradientUnits="userSpaceOnUse" x1="-4087.7502" y1="-1899.5999" x2="-4098.0244" y2="-1806.5271" gradientTransform="matrix(0.9828 -0.1843 0.1843 0.9828 4636.8306 1271.9166)">
						<stop  offset="0" style="stop-color:#FCD1C2"/>
						<stop  offset="0.3786" style="stop-color:#FCCFC0"/>
						<stop  offset="0.5763" style="stop-color:#FBC8B8"/>
						<stop  offset="0.7322" style="stop-color:#FABEAB"/>
						<stop  offset="0.8661" style="stop-color:#F9AE99"/>
						<stop  offset="0.9849" style="stop-color:#F79C83"/>
						<stop  offset="1" style="stop-color:#F79980"/>
					</linearGradient>
					<path class="st18" d="M280.9,247.8c2.3-3.1,2.7-7.6,2.8-12.2c0.4-11.4,0.9-22.7,1.4-34.1c0.2-5.1,0.4-10.1,0.6-15.2
						c0.3-10.3,1-25.5-12.5-28c-3.1-0.6-7.1,1.7-9,3.8c-1.4,1.6-2.3,3.8-2.9,6.3c-1.2,5.3-0.8,11.8-1.1,16.3
						c-0.5,9.4-0.9,18.8-0.9,28.2c0,6.1,0,12.1,0.3,18.2c0.3,5,0.1,11.3,2.4,16c2.5,5,8.5,5.7,13,4.5
						C277.8,250.8,279.7,249.5,280.9,247.8z"/>
				</g>
				<linearGradient id="SVGID_18_" gradientUnits="userSpaceOnUse" x1="300.6216" y1="205.3868" x2="238.2086" y2="150.8813">
					<stop  offset="0" style="stop-color:#6D64AC"/>
					<stop  offset="0.2988" style="stop-color:#7781BF"/>
					<stop  offset="0.6137" style="stop-color:#819ED2"/>
					<stop  offset="0.8581" style="stop-color:#88B2DF"/>
					<stop  offset="1" style="stop-color:#8BB9E4"/>
				</linearGradient>
				<path class="st19" d="M291.7,206.7c-1.9-14,0.1-64.5-20-66.5c-22.2-2.3-17.9,67.1-17.9,67.1L291.7,206.7z"/>
			</g>
			<g>
				
					<linearGradient id="SVGID_19_" gradientUnits="userSpaceOnUse" x1="-5597.6152" y1="-810.1467" x2="-5604.9282" y2="-879.283" gradientTransform="matrix(-0.1667 0.986 -0.986 -0.1667 -1702.6587 5668.647)">
					<stop  offset="0" style="stop-color:#FCD1C2"/>
					<stop  offset="0.3786" style="stop-color:#FCCFC0"/>
					<stop  offset="0.5763" style="stop-color:#FBC8B8"/>
					<stop  offset="0.7322" style="stop-color:#FABEAB"/>
					<stop  offset="0.8661" style="stop-color:#F9AE99"/>
					<stop  offset="0.9849" style="stop-color:#F79C83"/>
					<stop  offset="1" style="stop-color:#F79980"/>
				</linearGradient>
				<path class="st20" d="M51,322.8c2-0.3,4-1.2,5.9-2c0.5-0.2,5.9-2,6.5-2c8.9-0.6,33.4,0.3,33.4,0.3l-0.4-24.5
					c0,0-21.1,4.1-33.7,1l0,0c-6.3-10.7-20-25.2-20-25.2s-4.6-11.9-5.2-13c-0.5-1.1,3.3-3.9,0.2-7.1c0,0-0.6-16.4-4.1,11
					c0,0-6.4,11.4-2.9,30.2c0.5,4.1,0.9,8.2,1.4,12.3c0.5,4.2,1.2,16.8,2.5,18.4c0.5,0.6,1,1,1.5,1.3C40,325.7,46.8,323.5,51,322.8z
					"/>
				
					<linearGradient id="SVGID_20_" gradientUnits="userSpaceOnUse" x1="-5641.9092" y1="-824.8005" x2="-5559.7705" y2="-824.8005" gradientTransform="matrix(-0.1667 0.986 -0.986 -0.1667 -1702.6587 5668.647)">
					<stop  offset="0" style="stop-color:#2A307C"/>
					<stop  offset="2.514958e-002" style="stop-color:#292F78"/>
					<stop  offset="0.1548" style="stop-color:#232964"/>
					<stop  offset="0.2919" style="stop-color:#1C2253"/>
					<stop  offset="0.4367" style="stop-color:#151D47"/>
					<stop  offset="0.5925" style="stop-color:#10183E"/>
					<stop  offset="0.7672" style="stop-color:#0D1539"/>
					<stop  offset="1" style="stop-color:#0B1438"/>
				</linearGradient>
				<path class="st21" d="M56.8,320.9c-1.1-6.2-0.9-12.9-0.4-18.4c0.4-4,1.4-8.4,3.3-12.3c-5.7-10.7-11.8-24.2-11.8-24.2
					s-4.3-15.6-4.9-16.7c-0.5-1.1-1.4-4-4.5-7.1c0,0-5.6-8.6-9.1,18.8c0,0-2.3,11.9,1.2,30.7c0.5,4.1,0.9,8.2,1.4,12.3
					c0.5,4.2,1.2,16.8,2.5,18.4c0.5,0.6,1,1,1.5,1.3c3.9,2.1,10.8-0.1,14.9-0.8C52.9,322.5,54.9,321.6,56.8,320.9z"/>
				
					<linearGradient id="SVGID_21_" gradientUnits="userSpaceOnUse" x1="-5592.6577" y1="-867.5411" x2="-5607.4097" y2="-1006.9999" gradientTransform="matrix(-0.1667 0.986 -0.986 -0.1667 -1702.6587 5668.647)">
					<stop  offset="0" style="stop-color:#2A307C"/>
					<stop  offset="2.514958e-002" style="stop-color:#292F78"/>
					<stop  offset="0.1548" style="stop-color:#232964"/>
					<stop  offset="0.2919" style="stop-color:#1C2253"/>
					<stop  offset="0.4367" style="stop-color:#151D47"/>
					<stop  offset="0.5925" style="stop-color:#10183E"/>
					<stop  offset="0.7672" style="stop-color:#0D1539"/>
					<stop  offset="1" style="stop-color:#0B1438"/>
				</linearGradient>
				<path class="st22" d="M84.9,319c28.9,4,92.3,9.5,128.1-2.7c5.6-1.9,11.7-7.6,12.3-13.8c0.5-4.8-1.5-11.8-5.6-14.7
					c-3.4-2.4-14.7-3.2-18.6-3c-11.1,0.5-82.2,6.2-115.7,8.9L84.9,319z"/>
			</g>
		</g>
		<g>
			<path class="st23" d="M388.4,148.2c-17.2-12.6-28.4-32.8-28.4-55.8c0-38.4,31.1-69.5,69.5-69.5s69.5,31.1,69.5,69.5
				c0,22.9-11.3,43.1-28.4,55.8h30.3c12.1-15.4,19.6-34.6,19.6-55.8c0-50.2-40.7-90.9-90.9-90.9s-90.9,40.7-90.9,90.9
				c0,21.1,7.5,40.3,19.6,55.8H388.4z"/>
			<g>
				<linearGradient id="SVGID_22_" gradientUnits="userSpaceOnUse" x1="427.9954" y1="256.7543" x2="427.9954" y2="422.2053">
					<stop  offset="0" style="stop-color:#EBEEEF"/>
					<stop  offset="7.923795e-002" style="stop-color:#DFE5EE"/>
					<stop  offset="0.2317" style="stop-color:#CDDBED"/>
					<stop  offset="0.3777" style="stop-color:#C3D6EE"/>
					<stop  offset="0.5089" style="stop-color:#BFD4EE"/>
				</linearGradient>
				<path class="st24" d="M522.9,113.9H333.1c-7.6,0-13.7,6.1-13.7,13.7v179.8c0,7.6,6.1,13.7,13.7,13.7h189.8
					c7.6,0,13.7-6.1,13.7-13.7V127.6C536.6,120,530.5,113.9,522.9,113.9z M442.8,209.2V261c0,3.9-3.1,7-7,7H423c-3.9,0-7-3.1-7-7
					v-51.9c-8.6-4.8-14.6-13.6-14.5-24.2c0.1-14.8,12.3-27.3,27-27.7c15.8-0.5,28.7,12.2,28.7,27.9
					C457.3,195.6,451.3,204.4,442.8,209.2z"/>
			</g>
		</g>
	</g>
</g>
</svg>
