<svg class="img-fluid" id="outputsvg" xmlns="http://www.w3.org/2000/svg" style="transform: none; transform-origin: 50% 50%; cursor: move; max-height: 385.78px;" width="2144" height="1188" viewBox="0 0 21440 11880"><g id="l27SPTw1JSopkQoYDBy1dkA" fill="rgb(255,254,254)" style="transform: none;"><g><path id="p170A5dG5m" d="M9217 7453 l-139 -4 -50 -107 c-27 -59 -69 -152 -93 -207 -129 -298 -166 -380 -178 -387 -6 -4 -271 -8 -587 -8 -479 0 -579 2 -596 14 -24 17 -35 42 -169 384 l-107 272 -269 0 -269 0 0 -44 c0 -30 12 -71 39 -128 21 -45 60 -130 86 -188 26 -58 71 -157 100 -220 30 -63 79 -171 110 -240 31 -69 79 -172 105 -230 82 -175 228 -496 294 -645 35 -77 97 -213 139 -301 43 -89 77 -165 77 -169 0 -7 74 -168 171 -373 27 -56 49 -106 49 -109 0 -12 122 -267 146 -303 12 -19 27 -52 34 -73 10 -33 15 -37 45 -37 28 0 34 5 45 33 14 36 149 324 420 897 43 91 99 210 123 265 25 55 73 155 106 222 34 68 61 125 61 127 0 2 23 53 51 113 193 410 366 775 430 908 162 338 213 454 217 498 l4 47 -129 -2 c-70 -1 -190 -4 -266 -5z m-738 -1340 c-272 -569 -333 -693 -338 -693 -4 0 -23 39 -44 88 -20 48 -101 241 -181 430 l-143 342 393 0 393 0 -80 -167z"></path></g></g><g id="l2IM3Wx1L8Emnc6H5nfGF0c" fill="rgb(209,145,150)" style="transform: none;"><g><path id="pi57aTI4" d="M13582 7871 c-54 -14 -108 -57 -131 -103 -17 -35 -21 -63 -21 -134 0 -118 27 -180 96 -224 46 -28 53 -30 154 -30 69 0 110 4 118 12 7 7 12 30 12 51 l0 40 -76 -6 c-60 -6 -84 -3 -110 9 -66 31 -105 116 -83 182 23 72 86 118 148 107 20 -3 55 -8 79 -11 l42 -6 0 46 c0 41 -3 48 -26 56 -37 14 -162 21 -202 11z"></path><path id="pQn2PVeMJ" d="M12500 7641 c0 -126 3 -236 6 -245 4 -12 20 -16 55 -16 l48 0 22 51 c13 28 44 96 69 150 l47 98 72 -150 71 -150 48 3 47 3 3 243 2 242 -44 0 c-31 0 -46 -5 -50 -16 -3 -9 -6 -59 -6 -112 l0 -97 -45 95 c-61 129 -57 125 -99 128 l-37 3 -54 -113 -54 -113 0 113 -1 112 -50 0 -50 0 0 -229z"></path><path id="pPmwhcJeP" d="M13097 7667 c-51 -135 -77 -218 -77 -245 l0 -42 44 0 c24 0 48 6 53 13 5 6 29 66 52 132 24 66 46 126 50 133 4 8 29 -45 60 -127 30 -78 59 -146 67 -152 7 -5 28 -9 46 -7 32 3 33 5 36 48 2 36 -13 83 -77 245 l-79 200 -49 3 -49 3 -77 -204z"></path><path id="pgAG8ObQr" d="M9062 7448 c-5 -7 -40 -85 -77 -173 -37 -88 -96 -225 -130 -305 -35 -80 -70 -162 -79 -182 l-15 -38 -598 0 -598 0 -22 53 c-13 28 -31 77 -42 107 -10 30 -48 127 -83 215 -35 88 -75 188 -89 223 -22 58 -25 62 -56 62 -23 0 -33 -5 -33 -15 0 -8 6 -15 14 -15 9 0 52 -97 121 -272 134 -342 145 -367 169 -384 17 -12 122 -14 626 -14 333 0 611 4 617 8 12 7 49 89 178 387 24 55 66 148 93 208 l51 107 135 1 c75 1 141 3 146 4 6 1 17 3 25 4 8 0 15 8 15 16 0 13 -27 15 -179 15 -131 0 -181 -3 -189 -12z"></path><path id="p1GHg3Rp2S" d="M9550 7445 c0 -8 7 -15 16 -15 11 0 15 -6 11 -17 -5 -16 -144 -318 -216 -468 -64 -133 -237 -498 -430 -908 -28 -60 -51 -111 -51 -113 0 -2 -27 -59 -61 -127 -33 -67 -81 -167 -106 -222 -24 -55 -80 -174 -123 -265 -209 -443 -396 -841 -422 -900 l-15 -35 -13 40 c-6 22 -22 56 -34 75 -24 36 -146 291 -146 303 0 3 -22 53 -49 109 -97 205 -171 366 -171 373 0 4 -34 80 -77 169 -42 88 -104 224 -139 301 -66 149 -212 470 -294 645 -26 58 -74 161 -105 230 -31 69 -80 177 -110 240 -29 63 -74 162 -100 220 -26 58 -65 143 -86 188 -42 91 -47 112 -24 112 8 0 15 7 15 15 0 10 -11 15 -35 15 -34 0 -35 -1 -35 -39 0 -24 15 -71 39 -123 21 -45 57 -126 81 -178 24 -52 71 -156 105 -230 35 -74 86 -187 115 -250 29 -63 81 -176 116 -251 35 -75 64 -139 64 -142 0 -4 22 -54 50 -112 28 -58 50 -107 50 -109 0 -3 27 -61 60 -129 33 -69 60 -131 60 -139 0 -7 6 -22 13 -33 8 -11 60 -121 116 -245 56 -124 126 -277 156 -340 29 -63 76 -167 105 -230 123 -270 174 -376 186 -386 7 -5 21 -37 32 -70 19 -58 20 -59 56 -59 l37 0 53 115 c29 63 86 183 126 265 40 83 101 211 135 285 98 210 204 437 305 650 51 107 132 283 182 390 49 107 107 231 128 275 107 222 277 581 315 665 23 52 75 162 114 244 50 105 71 160 71 188 0 37 -1 38 -35 38 -24 0 -35 -5 -35 -15z"></path><path id="p12I549Vyg" d="M12204 7126 c-177 -42 -313 -109 -445 -220 -178 -149 -277 -323 -334 -589 -25 -112 -17 -379 14 -492 100 -364 363 -625 731 -726 97 -27 365 -37 479 -19 172 28 347 104 486 212 70 55 75 62 75 97 0 29 -7 44 -33 69 -51 49 -91 45 -169 -18 -112 -90 -286 -167 -428 -190 -290 -45 -609 86 -802 329 -118 148 -176 302 -185 492 -11 236 61 433 223 607 157 171 339 266 561 294 212 27 448 -45 634 -194 47 -38 67 -48 97 -48 52 0 102 50 102 102 0 32 -7 41 -77 97 -97 76 -248 152 -373 187 -82 22 -120 26 -275 30 -164 4 -189 2 -281 -20z"></path><path id="p15yHedUJt" d="M14025 6636 c-154 -49 -248 -164 -280 -342 -41 -231 5 -436 128 -558 96 -96 201 -132 369 -124 245 11 368 164 368 455 l0 113 -345 0 -346 0 7 38 c27 154 154 272 293 272 68 0 226 -58 246 -90 3 -5 24 -10 46 -10 l40 0 -3 87 -3 88 -50 27 c-80 43 -159 58 -302 57 -74 0 -145 -6 -168 -13z m390 -653 c-36 -192 -219 -264 -372 -147 -33 25 -70 80 -98 147 l-15 37 246 0 246 0 -7 -37z"></path><path id="pU6zNO1CZ" d="M13157 6623 c-10 -18 -6 -955 4 -974 9 -18 19 -19 87 -17 l77 3 5 45 5 44 17 -26 c10 -14 43 -39 75 -55 50 -24 70 -28 143 -28 123 1 120 -2 120 106 l0 91 -37 -5 c-21 -2 -52 -9 -69 -15 -63 -20 -148 34 -194 124 -45 92 -51 135 -57 432 l-6 282 -83 0 c-45 0 -85 -3 -87 -7z"></path><path id="piOd4dSeZ" d="M7734 6295 c-4 -8 12 -57 34 -108 53 -121 227 -533 262 -622 38 -96 109 -249 114 -244 2 2 94 195 206 429 112 234 216 451 231 484 16 32 26 63 23 67 -3 5 -199 9 -435 9 -373 0 -430 -2 -435 -15z m806 -29 c0 -4 -78 -169 -192 -406 -41 -85 -103 -217 -139 -293 l-64 -138 -28 63 c-16 35 -63 144 -104 243 -42 99 -107 254 -145 345 -38 91 -72 171 -75 178 -4 9 74 12 371 12 207 0 376 -2 376 -4z"></path><path id="pn4Tym5bA" d="M12193 4838 c-6 -7 -23 -39 -37 -71 l-25 -58 -62 3 -61 3 -25 63 -25 62 -49 0 c-49 0 -49 0 -49 -34 0 -30 36 -131 133 -371 l32 -80 42 -3 c54 -4 54 -4 143 228 54 140 70 194 68 225 -3 38 -5 40 -39 43 -21 2 -40 -2 -46 -10z m-93 -222 c0 -1 -5 -17 -11 -34 -13 -37 -23 -34 -37 8 -11 29 -10 30 19 30 16 0 29 -2 29 -4z"></path><path id="p1DBOAZth1" d="M12333 4836 c-30 -14 -33 -19 -33 -62 l0 -46 43 6 c23 3 60 8 82 11 28 5 46 2 60 -9 28 -21 13 -41 -66 -88 -93 -57 -111 -77 -117 -136 -11 -117 38 -162 177 -162 106 0 111 2 111 57 l0 46 -62 -6 c-65 -6 -123 12 -116 36 2 7 43 38 91 70 96 63 107 80 107 159 0 58 -21 101 -59 119 -41 19 -180 22 -218 5z"></path><path id="p1DgYl5tFr" d="M12952 4838 c-14 -14 -16 -76 -3 -96 5 -9 24 -12 52 -10 l44 3 0 55 0 55 -40 3 c-23 2 -46 -3 -53 -10z"></path><path id="p5nzCix5s" d="M12662 4598 l3 -243 52 -3 c29 -2 85 1 124 7 56 8 78 16 100 37 28 26 29 32 29 115 0 81 -2 89 -28 117 -30 32 -85 52 -144 52 l-38 0 0 80 0 80 -50 0 -50 0 2 -242z m183 -43 c14 -13 25 -33 25 -44 0 -26 -46 -61 -81 -61 -29 0 -29 0 -29 65 l0 65 30 0 c19 0 40 -9 55 -25z"></path><path id="pJibGVrtC" d="M13106 4824 c-11 -27 -7 -434 4 -455 8 -14 21 -19 49 -19 45 0 52 6 156 155 43 61 82 115 87 120 7 7 9 -18 5 -75 -3 -47 -2 -110 1 -140 l7 -55 41 -3 c39 -3 42 -1 48 29 8 40 8 422 0 443 -4 11 -19 16 -50 16 -49 0 -41 8 -174 -175 l-80 -109 0 142 0 142 -44 0 c-31 0 -46 -5 -50 -16z"></path><path id="p8pFNOCSY" d="M13582 4598 l3 -243 128 1 c70 1 210 2 312 3 l185 1 0 40 c0 44 -6 47 -85 52 l-40 3 4 80 c2 43 0 130 -4 193 l-7 113 -47 -3 -46 -3 -3 -192 -2 -191 -63 -4 c-34 -1 -101 -1 -149 0 l-88 4 0 49 0 48 78 3 77 3 3 43 3 42 -80 0 -81 0 0 55 0 55 90 0 90 0 0 45 0 45 -140 0 -140 0 2 -242z"></path></g></g><g id="l52t7HohEuTE0sQtoWGPBAk" fill="rgb(128,123,138)" style="transform: none;"><g><path id="psLuzPviL" d="M12773 7798 c19 -46 37 -48 37 -4 0 32 -3 36 -25 36 -24 0 -25 -1 -12 -32z"></path><path id="pPbs9gVkO" d="M12342 6490 c-103 -22 -177 -83 -224 -186 -20 -44 -23 -65 -23 -189 0 -130 2 -144 26 -196 32 -68 85 -121 158 -157 52 -25 65 -27 176 -27 111 0 124 2 177 28 65 32 122 90 151 156 23 52 35 229 22 347 -6 59 -11 71 -46 109 -22 24 -71 59 -113 80 -68 34 -83 38 -168 41 -51 2 -112 -1 -136 -6z"></path><path id="pG18bptA4" d="M13750 4630 c0 -16 7 -20 31 -20 24 0 30 -4 25 -15 -3 -8 -1 -15 4 -15 6 0 10 16 10 35 0 33 -2 35 -35 35 -28 0 -35 -4 -35 -20z"></path><path id="pYY9nyir7" d="M12910 4425 l-34 -35 37 0 c36 0 37 1 37 35 0 19 -1 35 -3 35 -2 0 -18 -16 -37 -35z"></path><path id="poVrPNx5b" d="M14070 4435 c0 -8 8 -16 18 -16 86 -6 92 -8 92 -19 0 -5 -26 -11 -57 -11 -32 -1 -48 -4 -35 -6 12 -2 22 -11 22 -19 0 -10 13 -14 45 -14 l45 0 0 50 0 50 -65 0 c-51 0 -65 -3 -65 -15z"></path></g></g><g id="l7xEeUzac6fs23hvvdGGNh" fill="rgb(186,75,72)" style="transform: none;"><g><path id="p14Nd0iAfj" d="M0 5940 l0 -5940 10720 0 10720 0 0 129 0 130 -57 11 c-264 52 -367 86 -480 156 -84 52 -137 109 -151 163 -12 50 2 85 56 133 58 53 110 59 221 25 100 -31 283 -69 359 -75 l52 -4 0 5606 0 5606 -4055 0 -4055 0 0 -57 c0 -56 -1 -58 -55 -108 -44 -42 -55 -58 -55 -83 l0 -32 -37 23 c-21 13 -74 42 -118 65 -44 23 -106 62 -137 87 -48 37 -58 51 -58 75 l0 30 -2485 0 -2485 0 0 -26 c0 -59 129 -305 188 -357 35 -32 47 -98 34 -197 -20 -144 -15 -244 14 -344 l25 -89 -32 -33 c-18 -19 -38 -34 -44 -34 -14 0 -58 -47 -74 -77 -6 -12 -11 -40 -11 -62 0 -95 -43 -216 -98 -274 -15 -16 -49 -40 -75 -53 -26 -14 -89 -64 -140 -113 -90 -86 -94 -88 -177 -110 -47 -12 -114 -35 -150 -51 -36 -16 -89 -38 -118 -49 -29 -12 -65 -29 -79 -38 -24 -16 -56 -18 -283 -18 l-255 1 -95 39 c-100 41 -122 52 -247 126 -43 26 -103 60 -133 77 -84 47 -252 183 -281 227 -31 46 -119 214 -119 227 0 4 -21 54 -46 110 -70 156 -120 281 -135 337 -11 44 -10 57 6 112 11 34 34 80 52 102 65 78 84 120 93 214 14 140 44 214 110 278 16 16 30 39 30 52 l0 23 -2930 0 -2930 0 0 -5940z m13473 5602 c34 -17 73 -42 86 -56 23 -24 23 -26 7 -51 -23 -35 -64 -59 -148 -86 l-69 -22 -59 24 c-33 13 -69 31 -81 40 -20 15 -21 20 -10 47 7 16 23 40 37 53 16 15 24 33 24 57 l0 35 75 -5 c56 -4 90 -12 138 -36z m-9073 -88 c82 -19 103 -42 82 -89 -23 -51 -106 -56 -158 -11 -24 20 -26 27 -20 69 4 26 11 47 15 47 5 0 41 -7 81 -16z m5118 -195 c39 -13 45 -31 27 -75 -23 -57 -92 -67 -162 -24 -33 20 -61 95 -39 104 22 9 144 6 174 -5z m-4671 -481 c78 -14 116 -45 133 -107 29 -109 -41 -144 -195 -97 -27 8 -63 18 -79 21 -28 6 -28 7 -23 53 10 80 27 122 50 132 30 12 40 12 114 -2z m8198 -189 c33 -11 78 -30 100 -44 91 -55 120 -66 195 -77 97 -14 209 -1 285 33 43 20 70 24 195 27 80 1 151 -1 158 -6 7 -5 21 -40 31 -78 18 -69 18 -71 -3 -135 -26 -76 -102 -198 -144 -227 -16 -12 -51 -29 -78 -37 -165 -55 -278 -103 -349 -150 -44 -29 -96 -62 -115 -73 -19 -12 -75 -62 -125 -112 l-90 -90 1 -73 c1 -103 32 -178 98 -242 29 -27 78 -81 109 -120 30 -38 87 -103 126 -144 39 -41 79 -94 90 -117 11 -23 37 -69 58 -101 21 -32 46 -77 57 -100 21 -47 42 -57 133 -67 29 -3 65 -11 80 -20 31 -15 88 -93 124 -167 37 -79 55 -84 269 -82 102 2 208 8 237 14 48 9 57 8 122 -20 81 -36 156 -42 165 -13 2 9 7 51 11 92 7 81 51 260 70 286 10 14 19 15 66 5 120 -26 189 -52 239 -92 28 -22 88 -58 133 -81 133 -66 172 -98 307 -246 99 -110 120 -149 120 -226 0 -89 -25 -120 -159 -200 -60 -36 -133 -77 -162 -91 -30 -15 -82 -47 -117 -72 -34 -24 -94 -58 -132 -75 l-70 -31 0 -45 c0 -36 9 -58 46 -116 26 -39 63 -96 83 -126 44 -68 81 -110 97 -110 17 0 61 -54 91 -114 21 -40 28 -71 32 -146 l6 -95 37 -3 c23 -2 77 10 142 32 116 40 191 46 234 20 15 -8 48 -43 75 -77 26 -34 74 -93 107 -132 79 -92 89 -124 65 -212 -34 -129 -46 -141 -237 -231 -84 -40 -150 -64 -196 -72 l-69 -11 -7 -157 c-15 -353 -61 -576 -183 -892 -83 -216 -259 -505 -425 -698 -15 -18 -42 -61 -59 -95 -38 -74 -161 -214 -243 -274 -32 -23 -81 -51 -109 -60 -29 -10 -104 -45 -167 -77 -271 -139 -364 -182 -515 -236 l-160 -57 1 -44 c0 -24 6 -69 13 -99 19 -90 1 -134 -71 -171 -41 -21 -50 -15 -62 36 -11 45 -54 102 -116 153 l-55 45 -115 -8 c-63 -4 -205 -10 -315 -13 l-200 -7 -70 -39 c-38 -21 -112 -69 -163 -107 -110 -81 -246 -152 -321 -168 -30 -6 -89 -33 -135 -60 -45 -27 -144 -79 -221 -117 l-140 -69 -147 -147 c-108 -108 -155 -163 -179 -210 -21 -40 -65 -94 -119 -148 -47 -47 -95 -106 -106 -130 -12 -25 -29 -61 -38 -80 -9 -19 -37 -62 -62 -95 -91 -121 -165 -312 -172 -447 -5 -94 -2 -89 -69 -103 -18 -4 -55 -27 -83 -52 -40 -36 -53 -56 -66 -101 -9 -32 -32 -84 -52 -117 -32 -53 -36 -69 -40 -142 -3 -59 1 -96 12 -130 24 -69 23 -72 -26 -62 -55 10 -78 19 -78 30 0 5 11 32 25 59 21 42 25 62 24 132 -1 58 4 104 19 153 11 39 26 96 33 129 7 32 26 80 43 106 49 76 117 173 142 200 12 14 44 68 69 120 26 52 81 152 121 221 102 176 169 367 149 428 -5 17 -14 21 -51 21 -63 0 -170 -32 -245 -73 -83 -45 -149 -57 -330 -57 -159 0 -236 -11 -285 -41 -18 -11 -103 -55 -190 -99 -139 -69 -178 -83 -306 -114 -164 -39 -227 -65 -262 -107 -13 -15 -39 -72 -56 -126 -18 -54 -41 -114 -51 -134 -31 -62 -36 -63 -135 -30 -89 30 -89 30 -92 66 -5 52 24 130 58 157 16 13 47 34 70 48 75 45 91 115 40 173 -16 19 -42 39 -57 45 -38 15 -174 40 -258 47 -38 4 -97 13 -130 20 -33 7 -114 16 -180 20 -66 3 -154 13 -195 20 -41 8 -124 24 -185 35 -60 11 -168 39 -240 63 -147 47 -226 53 -305 23 -25 -10 -61 -24 -81 -31 -20 -8 -65 -15 -100 -17 l-64 -3 -6 56 c-13 119 -122 276 -237 339 -33 19 -96 73 -152 129 -74 76 -106 101 -145 115 -143 51 -224 95 -325 177 -25 20 -87 65 -138 100 -52 34 -108 81 -125 103 -106 134 -143 152 -297 143 -95 -5 -316 -55 -372 -83 -15 -8 -42 -33 -60 -56 -74 -94 -112 -124 -185 -146 -86 -26 -113 -47 -151 -115 -39 -69 -63 -84 -176 -109 l-93 -21 -49 24 c-27 13 -50 31 -52 40 -4 23 41 74 107 119 31 21 65 46 76 57 35 32 74 43 155 43 137 0 229 52 330 187 24 32 74 90 111 128 58 60 75 85 114 177 31 73 45 121 45 151 0 89 -83 319 -156 434 -42 67 -79 140 -88 176 -3 15 -37 60 -74 101 -50 55 -73 91 -92 140 -30 82 -59 110 -130 126 -30 7 -77 21 -104 32 -26 10 -110 25 -185 34 -75 8 -190 28 -257 45 -67 16 -132 29 -146 29 -33 0 -41 10 -20 26 23 18 145 18 257 -1 104 -17 440 -20 496 -5 57 16 71 40 77 124 5 78 1 93 -96 426 l-37 125 0 245 c0 259 0 260 56 444 23 75 21 126 -7 157 -21 23 -168 71 -289 94 -144 28 -135 19 -135 128 0 110 11 132 82 161 24 10 62 26 86 37 60 27 86 24 160 -17 112 -63 255 -85 301 -46 19 16 71 152 71 187 0 8 33 82 72 162 57 115 86 162 135 215 35 37 70 85 79 105 35 85 -13 263 -105 385 -52 68 -84 127 -95 170 -7 33 24 72 110 139 l56 43 83 -21 c46 -12 103 -31 128 -42 92 -42 245 -57 428 -43 114 9 118 11 220 64 243 127 289 158 401 270 59 58 121 115 138 125 58 33 94 145 70 217 -11 35 -36 55 -160 124 -65 36 -130 94 -130 115 0 23 39 66 78 86 66 33 109 34 197 6 126 -42 231 -64 350 -74 118 -10 174 -21 244 -46 66 -23 163 -19 251 10 93 31 391 111 445 119 22 4 101 11 175 16 92 6 154 15 195 30 66 23 210 55 294 65 30 3 78 17 106 30 67 32 196 47 410 49 l170 1 3 45 c2 25 -4 78 -14 118 -19 81 -15 154 11 239 14 49 19 53 58 64 56 16 159 16 227 0 109 -26 328 -171 459 -304 76 -77 90 -88 155 -109 68 -22 84 -23 366 -23 287 0 297 1 375 25 75 24 93 25 305 25 l225 0 136 -47 c128 -45 143 -48 238 -48 l101 0 29 58 c16 31 46 84 66 117 36 59 36 61 33 155 -3 92 -4 98 -45 165 -73 121 -91 165 -93 230 -5 130 -3 135 43 179 47 45 169 123 214 136 32 9 55 6 138 -21z m3403 -391 c7 -7 49 -31 95 -53 59 -29 87 -49 100 -72 18 -31 18 -33 -2 -70 -10 -21 -41 -59 -69 -85 -58 -54 -100 -65 -220 -54 -131 11 -192 40 -192 92 0 30 40 108 77 151 68 78 178 125 211 91z m-10517 -509 c97 -23 144 -48 170 -94 16 -27 17 -33 3 -61 -43 -88 -155 -184 -217 -184 -36 0 -182 37 -218 55 -33 18 -39 38 -39 151 0 62 4 95 13 101 12 9 116 38 167 46 14 2 27 5 29 6 2 0 43 -8 92 -20z m696 -268 c28 -47 22 -61 -26 -61 -38 0 -141 50 -141 69 0 10 14 39 31 65 l30 49 40 -39 c22 -22 52 -59 66 -83z m9709 -10 c97 -44 273 -255 290 -349 8 -43 -16 -80 -132 -199 -114 -118 -174 -149 -284 -147 -87 2 -183 29 -242 70 -30 21 -50 49 -84 119 l-45 92 3 201 c2 110 6 204 10 208 16 15 90 22 263 23 156 0 186 -2 221 -18z m-11815 -637 c10 -11 24 -40 30 -66 11 -39 10 -52 -1 -73 -19 -35 -59 -55 -113 -55 -56 0 -89 25 -106 79 -14 48 -6 87 23 120 19 21 27 23 85 18 43 -3 69 -11 82 -23z m-1153 -137 c88 -30 97 -35 149 -94 64 -73 65 -91 8 -146 -32 -32 -121 -68 -216 -91 -34 -8 -108 39 -148 95 -37 50 -74 145 -66 169 7 23 51 67 90 92 35 22 53 19 183 -25z m1475 -126 c-1 -39 -24 -66 -47 -58 -27 11 -29 35 -6 67 29 41 56 36 53 -9z m337 -120 c47 -34 53 -112 9 -126 -65 -21 -189 7 -189 42 0 26 47 93 73 103 28 12 76 3 107 -19z m-1737 -852 c54 -29 102 -78 167 -172 101 -145 95 -192 -18 -148 -120 46 -203 95 -241 141 -84 104 -81 139 15 174 49 18 51 18 77 5z m12772 -258 c109 -38 144 -58 180 -106 26 -33 27 -38 16 -75 -13 -46 -57 -83 -127 -110 -43 -16 -53 -16 -87 -4 -55 20 -156 93 -174 127 -18 36 -28 123 -19 170 6 31 11 36 39 39 37 4 49 1 172 -41z m2565 -751 c95 -17 217 -58 224 -76 8 -20 8 -105 0 -171 -5 -36 -15 -61 -33 -81 -35 -39 -163 -142 -177 -142 -6 0 -48 -19 -94 -41 -130 -64 -131 -64 -317 30 -87 44 -168 90 -179 102 -15 16 -19 36 -19 86 l0 64 51 47 c56 52 140 113 212 154 34 19 71 29 132 36 89 10 94 10 200 -8z m-14711 -1047 c37 -29 85 -98 102 -151 10 -29 9 -37 -7 -53 -17 -16 -24 -17 -59 -8 -53 15 -146 62 -167 86 -20 22 -42 113 -31 124 16 16 88 37 108 32 11 -3 35 -17 54 -30z m11814 -1244 c118 -30 187 -91 187 -165 0 -37 -44 -108 -95 -153 -38 -33 -40 -34 -109 -28 -110 9 -145 24 -173 76 -26 50 -29 97 -9 144 13 31 102 147 112 147 3 0 42 -9 87 -21z m1434 -965 c54 -25 112 -56 128 -68 17 -13 49 -33 72 -46 29 -16 50 -37 63 -65 24 -50 25 -73 2 -101 -33 -42 -57 -47 -130 -29 -85 21 -169 49 -207 69 -16 9 -34 16 -38 16 -20 0 -154 73 -170 92 -19 22 -17 75 4 145 9 28 15 32 52 36 78 8 126 -2 224 -49z m-3267 -148 c21 -23 23 -56 3 -56 -12 0 -73 59 -73 71 0 19 47 8 70 -15z m-9671 -145 c23 -15 -13 -59 -109 -136 -142 -113 -269 -167 -319 -136 -21 14 -7 53 47 123 46 61 50 64 142 96 52 18 109 39 125 47 34 16 93 19 114 6z m-880 -51 c23 -17 45 -38 48 -46 8 -22 -36 -102 -84 -150 -25 -26 -80 -62 -135 -90 -51 -26 -106 -58 -123 -72 -16 -14 -57 -38 -90 -54 -48 -22 -74 -28 -130 -28 -38 0 -88 5 -110 11 -37 10 -115 75 -115 96 0 5 21 30 48 55 80 79 371 234 527 282 107 32 114 32 164 -4z m1327 -21 c13 -12 27 -38 30 -56 6 -30 2 -39 -27 -70 -64 -66 -114 -77 -238 -53 -74 15 -108 41 -116 90 -10 55 8 69 121 96 120 28 195 26 230 -7z m9984 -342 c40 -20 40 -74 0 -112 -35 -34 -81 -38 -157 -16 -53 15 -81 58 -61 91 27 43 160 66 218 37z m-7378 -231 c34 -22 42 -44 63 -159 24 -132 19 -143 -69 -152 -151 -16 -252 28 -286 126 -17 49 -7 82 40 129 84 84 177 105 252 56z m-4108 -83 c9 -22 -3 -36 -20 -22 -19 15 -19 50 0 43 8 -3 17 -12 20 -21z m10631 -648 c33 -9 76 -26 95 -38 19 -13 55 -31 80 -42 25 -10 51 -24 59 -29 28 -21 80 -113 96 -171 10 -32 27 -68 40 -80 26 -27 93 -43 213 -51 104 -7 146 -18 190 -51 30 -23 33 -29 27 -59 -18 -98 -65 -157 -142 -179 -31 -9 -67 -23 -80 -32 -22 -15 -31 -14 -126 17 -142 45 -140 43 -138 183 1 63 -2 122 -5 131 -10 27 -52 43 -164 64 -128 24 -195 58 -259 128 -60 65 -99 168 -74 196 8 9 34 19 57 21 22 2 48 4 56 5 9 1 43 -5 75 -13z m-7613 -325 c18 -31 19 -49 14 -167 -4 -95 -9 -139 -20 -156 -20 -30 -73 -59 -160 -87 l-69 -22 -61 32 c-33 18 -75 43 -93 56 -32 24 -32 25 -19 62 28 79 68 144 124 199 47 48 72 63 142 90 47 18 93 31 104 30 10 -1 28 -18 38 -37z m9546 -479 c96 -31 163 -67 206 -108 128 -125 141 -213 44 -318 -73 -80 -76 -80 -268 -19 -91 29 -191 60 -224 70 -63 18 -122 62 -138 103 -19 49 -37 136 -38 182 0 64 34 92 140 113 53 10 216 -3 278 -23z m-7682 -106 c45 -31 56 -167 22 -270 -16 -48 -60 -80 -125 -90 -43 -6 -50 -4 -69 18 -30 35 -37 106 -19 185 20 86 49 130 99 153 50 23 65 23 92 4z m2259 -206 c89 -25 145 -130 121 -231 -15 -64 -41 -107 -73 -119 -14 -5 -69 -9 -124 -9 -83 0 -102 3 -118 19 -21 21 -45 130 -45 213 -1 49 3 61 24 82 28 27 100 55 145 55 17 1 48 -4 70 -10z"></path><path id="pIvXSIs0t" d="M8027 8580 c-14 -11 -30 -20 -35 -20 -5 0 -32 -15 -58 -33 -27 -19 -68 -42 -91 -52 -24 -10 -43 -22 -43 -27 0 -4 -6 -8 -13 -8 -7 0 -22 -8 -33 -18 -24 -22 -249 -137 -286 -146 -15 -3 -51 -20 -80 -38 -29 -17 -114 -62 -188 -100 -74 -38 -144 -78 -156 -89 -11 -10 -26 -19 -32 -19 -7 0 -12 -4 -12 -8 0 -9 -83 -60 -167 -102 -35 -17 -65 -36 -68 -41 -4 -5 -17 -9 -29 -9 -13 0 -29 -7 -36 -15 -6 -8 -22 -17 -33 -21 -12 -3 -53 -27 -91 -53 -94 -63 -135 -87 -176 -102 -68 -24 -174 -111 -205 -170 -20 -37 -55 -230 -55 -302 0 -34 -7 -102 -14 -152 -8 -49 -22 -157 -30 -240 -9 -82 -18 -170 -21 -195 -2 -25 -11 -90 -19 -145 -8 -55 -18 -145 -21 -200 -4 -55 -17 -167 -30 -250 -35 -223 -37 -238 -45 -390 -5 -77 -15 -189 -24 -250 -9 -60 -25 -168 -36 -240 -46 -310 -52 -567 -15 -617 22 -29 74 -58 105 -58 11 0 20 -3 20 -8 0 -4 15 -13 33 -20 17 -7 41 -18 52 -24 56 -31 72 -38 95 -38 14 -1 63 -14 110 -31 47 -17 96 -33 110 -36 14 -2 34 -8 45 -13 11 -5 42 -16 69 -25 27 -9 61 -22 75 -29 33 -16 155 -56 173 -56 19 0 68 -23 68 -32 0 -5 11 -8 24 -8 14 0 27 -4 30 -8 3 -5 31 -15 63 -22 32 -8 73 -22 91 -32 18 -10 41 -18 51 -18 10 0 30 -9 44 -20 14 -11 32 -20 41 -20 9 0 35 -8 59 -19 23 -10 60 -23 82 -29 22 -5 100 -35 174 -66 73 -31 143 -56 155 -56 12 0 41 -9 64 -20 23 -11 57 -23 75 -27 17 -3 37 -9 42 -13 6 -4 37 -10 70 -13 33 -4 87 -16 120 -28 33 -11 77 -23 98 -26 l37 -5 0 50 0 49 -42 6 c-57 9 -374 113 -538 177 -91 36 -253 92 -360 125 -25 7 -128 45 -230 83 -102 39 -219 80 -260 92 -75 23 -90 28 -255 93 -49 20 -135 50 -190 68 -155 49 -195 65 -260 101 -75 42 -84 70 -66 203 7 49 16 126 21 170 5 44 16 123 25 175 8 52 22 184 30 292 8 108 28 290 45 405 16 114 36 269 44 343 30 277 57 510 76 675 11 94 25 228 31 300 12 158 31 250 63 313 29 57 55 82 122 116 29 14 103 56 165 94 63 38 152 88 199 112 47 23 114 59 150 80 36 20 79 44 95 52 150 78 346 184 370 203 31 23 146 87 380 212 77 41 154 85 170 97 58 43 149 89 153 77 2 -6 19 -11 38 -11 32 0 34 2 34 34 0 19 -4 46 -10 60 -8 23 -15 26 -58 26 -34 0 -57 -6 -75 -20z"></path><path id="p14MHsqncM" d="M12890 7825 c0 -41 24 -49 34 -10 4 14 13 25 21 25 8 0 15 5 15 10 0 6 -16 10 -35 10 -33 0 -35 -2 -35 -35z"></path><path id="pjafPZDmR" d="M13140 7764 c0 -44 18 -42 37 4 13 31 12 32 -12 32 -22 0 -25 -4 -25 -36z"></path><path id="pOQF4ga8q" d="M13211 7751 c-15 -28 -14 -31 13 -31 19 0 23 4 19 20 -8 29 -20 33 -32 11z"></path><path id="p1BR282F9J" d="M13110 7684 c0 -44 18 -42 37 4 13 31 12 32 -12 32 -22 0 -25 -4 -25 -36z"></path><path id="pi6sXahBb" d="M13176 7651 c-3 -4 -10 -20 -15 -35 -10 -24 -8 -26 14 -26 22 0 25 4 25 35 0 33 -12 46 -24 26z"></path><path id="p1HFQp7sJl" d="M13323 7628 c19 -46 37 -48 37 -4 0 32 -3 36 -25 36 -24 0 -25 -1 -12 -32z"></path><path id="pPyjc0P0v" d="M13080 7615 c0 -14 -4 -25 -10 -25 -5 0 -10 -16 -10 -35 0 -19 4 -35 9 -35 12 0 15 5 40 68 l21 52 -25 0 c-20 0 -25 -5 -25 -25z"></path><path id="p15gTch7yt" d="M13260 7595 c0 -19 4 -35 9 -35 5 0 11 -18 15 -40 5 -34 10 -40 31 -40 l25 0 -25 66 c-13 36 -27 69 -30 75 -13 20 -25 7 -25 -26z"></path><path id="pOUQ6Gkuy" d="M12580 7574 c0 -44 18 -42 37 4 13 31 12 32 -12 32 -22 0 -25 -4 -25 -36z"></path><path id="pKxTHrooC" d="M12810 7565 c0 -31 3 -35 25 -35 30 0 30 3 8 41 -23 38 -33 37 -33 -6z"></path><path id="pk4oLYfmx" d="M13146 7571 c-3 -4 -10 -20 -15 -35 -10 -24 -8 -26 14 -26 22 0 25 4 25 35 0 33 -12 46 -24 26z"></path><path id="piUF8Y6Jv" d="M12646 7561 c-3 -4 -10 -20 -15 -35 -10 -24 -8 -26 14 -26 22 0 25 4 25 35 0 33 -12 46 -24 26z"></path><path id="pFljCCBJe" d="M12897 7530 c3 -10 11 -24 17 -29 10 -8 11 -3 8 19 -2 17 -10 30 -17 30 -8 0 -11 -8 -8 -20z"></path><path id="pnT8yAr1x" d="M13450 7515 c0 -31 3 -35 25 -35 29 0 30 2 10 40 -21 40 -35 38 -35 -5z"></path><path id="p11RMN3bv0" d="M13540 7501 c0 -5 14 -19 30 -31 l30 -21 0 30 c0 28 -3 31 -30 31 -16 0 -30 -4 -30 -9z"></path><path id="pFGSs02Jz" d="M9420 7450 c0 -19 6 -20 85 -20 47 0 85 -3 85 -8 0 -4 -44 -102 -98 -217 -122 -260 -117 -245 -88 -245 19 0 29 15 64 93 23 50 42 104 42 120 0 16 5 27 13 27 22 0 109 192 105 231 l-3 34 -102 3 c-98 3 -103 2 -103 -18z"></path><path id="pVQLZjLdD" d="M9053 7448 c-6 -7 -16 -31 -23 -53 -7 -22 -21 -56 -31 -76 -10 -20 -38 -85 -63 -145 -24 -60 -65 -156 -91 -214 -60 -136 -85 -201 -85 -222 0 -32 31 -19 46 20 9 20 42 98 74 172 33 74 93 214 133 310 53 126 80 178 95 185 12 5 22 15 22 22 0 17 -64 17 -77 1z"></path><path id="pNc12Elx1" d="M6790 7410 c0 -5 -11 -10 -25 -10 -38 0 -33 -42 21 -157 25 -54 60 -128 77 -165 17 -38 34 -68 39 -68 4 0 8 -10 8 -22 0 -25 109 -258 122 -258 4 0 8 -11 8 -25 0 -14 18 -61 40 -106 22 -44 49 -102 60 -128 10 -27 38 -87 60 -133 23 -45 51 -107 62 -135 11 -29 24 -53 29 -53 5 0 9 -6 9 -12 0 -25 35 -98 48 -98 7 0 12 -13 12 -30 0 -37 87 -220 105 -220 8 0 14 -19 17 -51 3 -28 10 -54 15 -58 6 -3 16 -23 24 -43 10 -29 18 -38 36 -38 29 0 29 3 -7 74 -17 32 -30 63 -30 68 0 5 -27 66 -60 135 -33 68 -60 126 -60 129 0 2 -22 51 -50 109 -27 58 -50 108 -50 112 0 3 -29 67 -64 142 -35 75 -87 188 -116 251 -29 63 -80 176 -115 250 -34 74 -81 178 -105 230 -24 52 -60 133 -81 178 -22 46 -39 88 -39 93 0 5 107 9 248 9 l247 0 24 -62 c14 -35 34 -87 46 -117 25 -66 45 -78 45 -27 0 20 -4 36 -10 36 -5 0 -10 11 -10 25 0 14 -4 25 -10 25 -5 0 -10 14 -10 30 0 17 -4 30 -10 30 -5 0 -10 9 -10 19 0 30 -11 51 -26 51 -8 0 -14 7 -14 15 0 13 -34 15 -250 15 -160 0 -250 -4 -250 -10z"></path><path id="pF7B95XF4" d="M12268 7143 c-20 -3 -28 -10 -28 -24 0 -22 3 -23 70 -8 31 7 50 16 50 25 0 14 -30 16 -92 7z"></path><path id="pRnlfl5Cw" d="M12540 7137 c0 -11 12 -18 38 -22 20 -3 69 -12 107 -20 87 -19 85 -19 85 3 0 21 -56 37 -167 48 -54 6 -63 4 -63 -9z"></path><path id="pxOC5ZYHk" d="M7390 7088 c5 -13 19 -50 32 -82 26 -66 48 -84 48 -40 0 35 -21 104 -32 104 -4 0 -8 9 -8 20 0 15 -7 20 -25 20 -21 0 -23 -3 -15 -22z"></path><path id="pfkdD3QMA" d="M12822 7068 c3 -7 19 -18 36 -25 31 -13 32 -12 32 12 0 22 -4 25 -36 25 -23 0 -34 -4 -32 -12z"></path><path id="pCCINqoDB" d="M11953 7043 c-7 -2 -13 -11 -13 -19 0 -8 -10 -14 -25 -14 -20 0 -25 -5 -25 -25 0 -14 2 -25 5 -25 13 0 135 73 135 81 0 9 -56 11 -77 2z"></path><path id="p1Egpso3qM" d="M12315 6999 c-84 -14 -135 -31 -135 -45 0 -18 35 -18 107 1 31 8 72 15 90 15 26 0 33 4 33 20 0 22 -11 23 -95 9z"></path><path id="pxCzWXO6N" d="M12530 6993 c0 -15 13 -21 78 -31 99 -15 112 -15 112 2 0 14 -38 25 -147 41 -38 6 -43 4 -43 -12z"></path><path id="pgXp85ED9" d="M12960 7002 c0 -8 52 -42 64 -42 3 0 6 11 6 25 0 22 -4 25 -35 25 -19 0 -35 -4 -35 -8z"></path><path id="pqmsvw8So" d="M11800 6930 c0 -15 -7 -20 -25 -20 -21 0 -25 -5 -25 -31 l0 -30 28 20 c15 11 43 33 62 50 l35 30 -37 1 c-31 0 -38 -3 -38 -20z"></path><path id="pibLW4dTq" d="M12047 6912 c-69 -36 -188 -120 -202 -142 -4 -6 9 -10 30 -10 28 0 38 5 42 20 3 11 14 20 24 20 11 0 19 7 19 15 0 8 9 15 20 15 11 0 20 7 20 15 0 8 9 15 20 15 11 0 40 10 65 22 34 17 45 28 45 45 0 13 -2 23 -4 23 -3 0 -38 -17 -79 -38z"></path><path id="p1ANdAd9YW" d="M12800 6925 c0 -22 4 -25 36 -25 44 0 42 18 -4 37 -31 13 -32 12 -32 -12z"></path><path id="pZGj32VZX" d="M7479 6857 c31 -89 59 -137 81 -137 27 0 25 19 -5 71 -14 24 -30 61 -35 82 -9 30 -16 37 -35 37 l-24 0 18 -53z"></path><path id="pNy740SZi" d="M12880 6885 c0 -16 6 -25 15 -25 8 0 15 -4 15 -10 0 -5 16 -10 35 -10 19 0 35 3 35 8 0 7 -82 62 -94 62 -3 0 -6 -11 -6 -25z"></path><path id="p1AlE0yUC4" d="M9274 6743 c-36 -76 -88 -187 -116 -248 -28 -60 -54 -114 -58 -120 -4 -5 -42 -84 -83 -175 -69 -152 -175 -379 -409 -875 -131 -278 -123 -255 -95 -255 21 0 32 17 85 129 34 71 62 138 62 149 0 11 4 22 9 24 21 8 241 481 241 519 0 17 5 29 13 29 11 0 188 364 381 779 49 108 68 181 46 181 -6 0 -41 -62 -76 -137z"></path><path id="pg15OFtbj" d="M13010 6801 c0 -29 3 -31 36 -31 39 0 38 9 -6 40 l-30 21 0 -30z"></path><path id="pQQuv2cpk" d="M11630 6770 c0 -11 -7 -20 -15 -20 -8 0 -15 -9 -15 -20 0 -11 -7 -20 -15 -20 -9 0 -15 -9 -15 -25 0 -16 -6 -25 -15 -25 -10 0 -15 -11 -15 -35 0 -19 3 -35 8 -35 4 0 22 24 40 53 17 28 48 73 68 100 l36 47 -31 0 c-24 0 -31 -4 -31 -20z"></path><path id="p1HfFtItoR" d="M7660 6740 c0 -19 7 -20 250 -20 243 0 250 1 250 20 0 19 -7 20 -250 20 -243 0 -250 -1 -250 -20z"></path><path id="p12bKqlr0F" d="M11736 6653 c-83 -104 -148 -258 -171 -400 -6 -39 -5 -43 14 -43 15 0 21 6 21 21 0 27 42 192 51 199 13 11 49 90 49 110 0 11 7 20 15 20 8 0 15 7 15 15 0 8 5 15 10 15 6 0 10 11 10 25 0 18 5 25 20 25 16 0 20 7 20 35 0 19 -2 35 -4 35 -2 0 -25 -26 -50 -57z"></path><path id="pOTbiCMZO" d="M14033 6643 c-13 -2 -23 -9 -23 -14 0 -5 -9 -9 -19 -9 -33 0 -51 -11 -51 -31 0 -14 -7 -19 -30 -19 -27 0 -30 -3 -30 -31 l0 -31 33 24 c45 35 107 65 161 79 84 21 48 49 -41 32z"></path><path id="p1HoNQnJq9" d="M14280 6636 c0 -8 19 -18 44 -25 60 -15 66 -14 66 8 0 13 -10 20 -31 25 -51 10 -79 7 -79 -8z"></path><path id="p9XWFxpsA" d="M13250 6620 c0 -15 7 -20 25 -20 16 0 25 -6 25 -15 0 -8 5 -15 10 -15 6 0 10 16 10 35 0 33 -2 35 -35 35 -28 0 -35 -4 -35 -20z"></path><path id="pGwkUTI3w" d="M13150 6595 c0 -39 24 -50 33 -15 3 11 12 20 21 20 9 0 16 7 16 15 0 10 -11 15 -35 15 -33 0 -35 -2 -35 -35z"></path><path id="p3ZPuW14Z" d="M14430 6591 c0 -5 19 -20 43 -33 41 -23 42 -25 45 -81 2 -31 0 -57 -3 -57 -4 0 -18 9 -32 20 -34 26 -43 25 -43 -5 0 -24 3 -25 60 -25 l60 0 0 58 c0 65 -8 102 -22 102 -5 0 -16 7 -24 15 -17 16 -84 21 -84 6z"></path><path id="pQBgnw2bQ" d="M13300 6363 c0 -209 4 -243 26 -243 12 0 14 39 14 220 0 213 -1 220 -20 220 -19 0 -20 -7 -20 -197z"></path><path id="pmX9OE0xC" d="M14105 6506 c-45 -14 -85 -37 -85 -48 0 -14 68 -8 84 7 8 8 28 15 45 15 24 0 31 4 31 20 0 23 -17 24 -75 6z"></path><path id="poHajd89D" d="M14260 6500 c0 -16 7 -20 35 -20 40 0 49 24 13 34 -38 10 -48 7 -48 -14z"></path><path id="p4VwkH4pP" d="M14340 6480 c0 -16 7 -20 35 -20 39 0 46 14 16 30 -31 16 -51 12 -51 -10z"></path><path id="p1F7KyyJjz" d="M13150 6185 c0 -238 2 -275 15 -275 8 0 15 6 16 13 5 87 8 480 4 505 -4 19 -12 32 -20 32 -13 0 -15 -41 -15 -275z"></path><path id="ph01IvyDj" d="M11450 6415 c0 -40 24 -49 34 -12 10 37 7 47 -14 47 -16 0 -20 -7 -20 -35z"></path><path id="p71YgmQQK" d="M13961 6404 c-27 -35 -26 -44 4 -44 22 0 25 4 25 35 0 19 -2 35 -4 35 -3 0 -14 -12 -25 -26z"></path><path id="p1ZjNtq4V" d="M11421 6313 c-15 -75 -14 -103 3 -103 9 0 19 25 30 71 20 89 20 89 -3 89 -14 0 -21 -12 -30 -57z"></path><path id="p9ETkstRt" d="M13916 6318 c-8 -18 -17 -52 -21 -75 -6 -38 -4 -43 12 -43 14 0 21 12 31 53 15 65 15 97 1 97 -5 0 -16 -15 -23 -32z"></path><path id="p16LZN3Cpj" d="M13740 6293 c0 -10 -3 -42 -6 -70 -6 -44 -4 -53 9 -53 15 0 20 12 32 98 6 38 5 42 -14 42 -13 0 -21 -6 -21 -17z"></path><path id="p2IMOPwwe" d="M7740 6291 c0 -5 20 -56 44 -113 24 -56 85 -202 136 -323 139 -332 212 -499 219 -508 4 -4 43 68 86 160 43 93 110 233 148 313 38 80 103 214 143 299 41 85 74 160 74 167 0 8 -8 14 -18 14 -14 0 -38 -42 -101 -172 -45 -95 -81 -185 -81 -200 0 -17 -5 -28 -14 -28 -16 0 -26 -21 -26 -56 0 -13 -6 -24 -13 -24 -14 0 -18 -7 -114 -210 -55 -118 -63 -130 -63 -97 0 35 -2 37 -31 37 -34 0 -36 4 -144 263 -32 75 -61 137 -66 137 -5 0 -9 8 -9 17 0 25 -31 103 -41 103 -5 0 -9 11 -9 25 0 14 -4 25 -10 25 -5 0 -10 10 -10 23 0 12 -9 42 -20 66 -11 24 -20 45 -20 47 0 2 119 4 265 4 258 0 265 1 265 20 0 20 -7 20 -295 20 -169 0 -295 -4 -295 -9z"></path><path id="piuTni6Uv" d="M8390 6280 c0 -17 7 -20 50 -20 43 0 50 3 50 20 0 17 -7 20 -50 20 -43 0 -50 -3 -50 -20z"></path><path id="pRGiWnkTr" d="M14440 6170 c0 -18 7 -20 70 -20 l70 0 0 -60 c0 -53 2 -60 20 -60 18 0 20 7 20 70 0 56 -3 70 -15 70 -8 0 -15 5 -15 10 0 6 -32 10 -75 10 -68 0 -75 -2 -75 -20z"></path><path id="pL9HH6Wgs" d="M13730 6070 c0 -33 3 -40 20 -40 21 0 25 16 14 58 -11 39 -34 27 -34 -18z"></path><path id="phREJhsoE" d="M13310 6048 c0 -30 13 -58 26 -58 9 0 14 12 14 35 0 28 -4 35 -20 35 -11 0 -20 -6 -20 -12z"></path><path id="pVs0KBtEk" d="M13897 6018 c15 -80 53 -131 53 -72 0 49 -22 104 -41 104 -15 0 -17 -6 -12 -32z"></path><path id="p3OL7eUUI" d="M14411 6018 c1 -18 -2 -57 -6 -87 -7 -44 -6 -53 6 -49 18 6 40 70 42 123 2 35 -1 40 -21 43 -19 3 -22 -1 -21 -30z"></path><path id="pD3E7mbiV" d="M11410 5991 c0 -10 3 -39 6 -65 5 -37 11 -46 26 -46 21 0 21 5 2 103 -6 30 -34 37 -34 8z"></path><path id="pglDPjkjU" d="M11560 5998 c0 -30 13 -58 26 -58 9 0 14 12 14 35 0 28 -4 35 -20 35 -11 0 -20 -6 -20 -12z"></path><path id="pBuyyqC3g" d="M14571 5956 c-15 -60 -14 -66 8 -66 19 0 31 34 31 86 0 41 -27 27 -39 -20z"></path><path id="p1Cm8FksdF" d="M13330 5964 c0 -31 55 -126 92 -160 45 -41 58 -43 58 -9 0 21 -5 25 -30 25 -27 0 -30 3 -30 30 0 20 -5 30 -15 30 -9 0 -15 9 -15 25 0 14 -4 25 -10 25 -5 0 -10 11 -10 25 0 18 -5 25 -20 25 -11 0 -20 -7 -20 -16z"></path><path id="pPDy5kM2H" d="M13770 5910 c0 -41 20 -80 42 -80 13 0 18 -8 18 -30 0 -27 3 -30 31 -30 l31 0 -24 33 c-14 17 -37 56 -52 85 -30 58 -46 67 -46 22z"></path><path id="p15mQc2qjH" d="M13150 5805 c0 -60 3 -75 15 -75 16 0 17 7 17 80 0 67 -1 70 -17 70 -12 0 -15 -15 -15 -75z"></path><path id="pVhhCX8FK" d="M13970 5850 c11 -16 34 -39 50 -50 l30 -21 0 30 c0 24 -4 31 -20 31 -13 0 -20 7 -20 20 0 16 -7 20 -31 20 l-30 0 21 -30z"></path><path id="pdaSefhYm" d="M11440 5835 c0 -28 4 -35 20 -35 21 0 24 10 14 48 -10 36 -34 27 -34 -13z"></path><path id="pZBBln3jI" d="M11593 5841 c16 -79 57 -133 57 -75 0 51 -22 104 -43 104 -16 0 -19 -5 -14 -29z"></path><path id="prks2I4IX" d="M14360 5845 c0 -20 -5 -25 -25 -25 -14 0 -25 -6 -25 -14 0 -14 -60 -26 -131 -26 -48 0 -54 -25 -9 -35 68 -15 167 20 214 75 33 39 33 50 1 50 -20 0 -25 -5 -25 -25z"></path><path id="p8GGz9tII" d="M13300 5820 c0 -11 6 -20 14 -20 9 0 12 7 9 20 -3 11 -9 20 -14 20 -5 0 -9 -9 -9 -20z"></path><path id="pWU2TrOmS" d="M14502 5785 l-22 -35 30 0 c28 0 30 3 30 35 0 44 -9 44 -38 0z"></path><path id="pQ1Xy6UyS" d="M13590 5780 c0 -22 20 -26 51 -10 30 16 23 30 -16 30 -28 0 -35 -4 -35 -20z"></path><path id="pYtcXJKWN" d="M13490 5776 c0 -13 28 -26 58 -26 6 0 12 9 12 20 0 16 -7 20 -35 20 -23 0 -35 -5 -35 -14z"></path><path id="pUgZqGych" d="M13340 5736 c0 -33 2 -36 31 -36 l30 0 -21 30 c-31 44 -40 45 -40 6z"></path><path id="pU9MNijPs" d="M13910 5721 c0 -29 3 -31 36 -31 39 0 38 9 -6 40 l-30 21 0 -30z"></path><path id="pZT3nAXqE" d="M11490 5696 c0 -19 6 -41 13 -48 8 -7 17 -25 20 -40 4 -15 14 -33 22 -42 8 -8 15 -19 15 -25 0 -6 11 -11 25 -11 29 0 31 7 10 36 -8 12 -30 53 -50 93 -20 39 -40 71 -45 71 -6 0 -10 -15 -10 -34z"></path><path id="p1ECYqJjJ0" d="M14423 5707 c-42 -28 -41 -37 2 -37 32 0 35 2 35 30 0 17 -1 30 -2 29 -2 0 -18 -10 -35 -22z"></path><path id="pwk7h7FSN" d="M13150 5691 c0 -49 9 -61 46 -61 24 0 34 5 34 15 0 8 -7 15 -16 15 -9 0 -21 14 -27 30 -15 39 -37 39 -37 1z"></path><path id="p3twb21jw" d="M13300 5684 c0 -9 -9 -18 -20 -21 -35 -9 -24 -33 15 -33 33 0 35 2 35 35 0 24 -5 35 -15 35 -8 0 -15 -7 -15 -16z"></path><path id="p12ivUjRya" d="M13410 5669 c0 -24 4 -29 25 -29 14 0 25 -4 25 -10 0 -5 16 -10 35 -10 24 0 35 5 35 15 0 8 -6 15 -13 15 -8 0 -35 11 -60 24 l-47 23 0 -28z"></path><path id="pAUCDecvC" d="M11670 5661 c0 -6 27 -46 60 -90 57 -75 119 -138 183 -183 l27 -19 0 30 c0 26 -4 31 -24 31 -18 0 -25 6 -28 23 -2 17 -11 23 -35 25 -28 3 -32 7 -35 35 -2 24 -8 33 -25 35 -17 3 -23 10 -23 28 0 15 -6 24 -15 24 -8 0 -15 9 -15 20 0 11 -4 20 -10 20 -5 0 -10 7 -10 15 0 9 -9 15 -25 15 -14 0 -25 -4 -25 -9z"></path><path id="pLWnsrZUb" d="M14050 5640 c0 -16 7 -20 35 -20 40 0 49 24 13 34 -38 10 -48 7 -48 -14z"></path><path id="pI6LDtaGj" d="M13578 5643 c-33 -8 -20 -33 17 -33 28 0 35 4 35 20 0 20 -14 23 -52 13z"></path><path id="pgpUQlJyX" d="M7582 5528 c5 -41 64 -179 81 -186 4 -2 7 -12 7 -23 0 -10 7 -19 15 -19 9 0 15 -9 15 -23 0 -39 31 -117 46 -117 8 0 14 -10 14 -24 0 -35 10 -56 26 -56 9 0 14 -11 14 -30 0 -29 47 -142 63 -148 4 -2 7 -12 7 -23 0 -14 7 -19 25 -19 14 0 25 2 25 4 0 2 -32 73 -71 158 -39 84 -84 182 -99 218 -69 160 -149 325 -160 328 -10 4 -12 -7 -8 -40z"></path><path id="pdvGszEHd" d="M11630 5466 c0 -33 2 -36 31 -36 l30 0 -21 30 c-31 44 -40 45 -40 6z"></path><path id="p1H0i78OQg" d="M13010 5435 c0 -8 -9 -15 -20 -15 -13 0 -20 -7 -20 -20 0 -16 -7 -20 -30 -20 -25 0 -30 -4 -30 -25 0 -14 4 -25 8 -25 11 0 148 96 157 110 4 6 -8 10 -29 10 -25 0 -36 -4 -36 -15z"></path><path id="p1Gm6FexOv" d="M13159 5416 c13 -14 20 -29 16 -35 -3 -7 2 -11 14 -11 17 0 21 6 21 35 0 34 -1 35 -37 35 l-36 0 22 -24z"></path><path id="pXKCWNZ03" d="M11770 5321 c0 -29 3 -31 36 -31 39 0 38 9 -6 40 l-30 21 0 -30z"></path><path id="p6s8xikqE" d="M12010 5332 c0 -10 33 -29 90 -52 l50 -20 0 25 c0 19 -5 25 -21 25 -11 0 -27 7 -35 15 -16 15 -84 21 -84 7z"></path><path id="pBpyJyRfY" d="M13080 5300 l-35 -29 38 -1 c35 0 37 2 37 30 0 17 -1 30 -3 30 -1 0 -18 -13 -37 -30z"></path><path id="pUSDPrvVy" d="M12770 5285 c0 -24 1 -25 32 -12 46 19 48 37 4 37 -32 0 -36 -3 -36 -25z"></path><path id="pZQnjH1fX" d="M11870 5245 c0 -20 5 -25 25 -25 15 0 25 -6 25 -14 0 -16 21 -26 56 -26 15 0 24 -6 24 -15 0 -9 9 -15 25 -15 14 0 25 -4 25 -10 0 -5 16 -10 36 -10 51 0 39 20 -28 46 -30 13 -82 39 -115 58 -34 20 -64 36 -67 36 -3 0 -6 -11 -6 -25z"></path><path id="pV0U6KBrQ" d="M12210 5257 c0 -15 44 -30 133 -42 43 -7 47 -5 47 13 0 15 -9 21 -42 25 -140 20 -138 20 -138 4z"></path><path id="pXgZlXfto" d="M12650 5250 c0 -21 10 -24 48 -14 36 10 27 34 -13 34 -28 0 -35 -4 -35 -20z"></path><path id="pPdk71opg" d="M12920 5209 c-52 -27 -96 -54 -98 -59 -2 -6 12 -10 32 -10 20 0 36 5 36 10 0 6 9 10 19 10 33 0 51 11 51 31 0 15 7 19 35 19 31 0 35 3 35 25 0 14 -3 24 -7 24 -5 -1 -51 -24 -103 -50z"></path><path id="pQTuBn9Fu" d="M12520 5230 c0 -21 16 -25 58 -14 39 11 27 34 -18 34 -33 0 -40 -3 -40 -20z"></path><path id="pec9nSWZX" d="M12140 5121 c0 -19 34 -31 86 -31 41 0 27 27 -20 39 -60 15 -66 14 -66 -8z"></path><path id="p10FEx0rtR" d="M12718 5133 c-33 -8 -20 -33 17 -33 28 0 35 4 35 20 0 20 -14 23 -52 13z"></path><path id="pjfZ2ToYm" d="M8446 4978 c-19 -40 -66 -140 -106 -223 -40 -82 -97 -201 -125 -263 -29 -62 -57 -113 -61 -112 -5 1 -16 24 -25 51 -9 27 -23 57 -32 67 -9 9 -25 38 -36 65 -11 26 -25 47 -31 47 -23 0 -6 -101 20 -120 8 -6 44 -85 56 -125 8 -25 15 -30 47 -33 32 -3 37 0 37 17 0 12 3 21 8 21 9 0 20 22 91 174 28 60 51 117 51 126 0 10 4 20 9 22 10 4 81 142 81 158 0 6 7 18 15 26 8 9 15 26 15 40 0 13 4 24 8 24 13 0 32 48 32 80 0 49 -19 34 -54 -42z"></path><path id="pdXhabmfP" d="M12440 4836 c0 -13 28 -26 58 -26 6 0 12 9 12 20 0 16 -7 20 -35 20 -23 0 -35 -5 -35 -14z"></path><path id="pZ8IaApuw" d="M7920 4798 c0 -57 10 -78 36 -78 13 0 24 1 24 3 0 1 -8 24 -18 51 -21 60 -42 72 -42 24z"></path><path id="pJPCoKtUm" d="M12170 4785 c0 -19 4 -35 9 -35 5 0 18 16 30 35 l20 35 -29 0 c-28 0 -30 -3 -30 -35z"></path><path id="p14rz4gsp5" d="M12544 4784 c14 -15 26 -31 26 -35 0 -5 5 -9 10 -9 6 0 10 16 10 35 0 34 -1 35 -36 35 l-37 0 27 -26z"></path><path id="p9aEFOrS5" d="M14050 4763 c0 -62 9 -93 26 -93 11 0 14 17 14 70 0 63 -2 70 -20 70 -17 0 -20 -7 -20 -47z"></path><path id="p4sRL87a3" d="M12500 4735 c0 -28 4 -35 20 -35 22 0 26 20 10 51 -16 30 -30 23 -30 -16z"></path><path id="poWsUICvJ" d="M7970 4675 c0 -31 3 -35 25 -35 29 0 30 2 10 40 -21 40 -35 38 -35 -5z"></path><path id="pBnp8g5qh" d="M12573 4675 c-11 -33 -10 -35 13 -35 21 0 24 5 24 35 0 22 -5 35 -13 35 -8 0 -18 -16 -24 -35z"></path><path id="pfeBOdriV" d="M13400 4640 c0 -33 3 -40 20 -40 17 0 20 7 20 40 0 33 -3 40 -20 40 -17 0 -20 -7 -20 -40z"></path><path id="p193VoKyL9" d="M12110 4630 c0 -24 25 -27 34 -4 9 23 8 24 -14 24 -13 0 -20 -7 -20 -20z"></path><path id="pv9vcYu4I" d="M13100 4585 c0 -49 23 -64 33 -23 8 31 -2 68 -19 68 -10 0 -14 -13 -14 -45z"></path><path id="peLijeGoN" d="M13170 4545 c0 -47 4 -85 9 -85 9 0 61 71 61 83 0 4 -7 7 -15 7 -11 0 -15 11 -15 40 0 33 -3 40 -20 40 -18 0 -20 -7 -20 -85z"></path><path id="p1ITd5Wi2" d="M12730 4600 c0 -13 7 -20 20 -20 24 0 27 25 4 34 -23 9 -24 8 -24 -14z"></path><path id="pSJwTdq3c" d="M14056 4558 c-12 -48 -7 -78 14 -78 17 0 20 7 20 50 0 36 -4 50 -14 50 -7 0 -16 -10 -20 -22z"></path><path id="pDXoZBQTt" d="M13400 4500 c0 -52 3 -60 19 -60 16 0 18 8 19 60 1 53 -1 60 -19 60 -17 0 -19 -7 -19 -60z"></path><path id="pbkO84Bhh" d="M13268 4510 l-28 -35 26 -3 c33 -4 36 -1 32 39 l-3 34 -27 -35z"></path><path id="pONQpZIxz" d="M12051 4484 c5 -15 12 -31 16 -37 8 -13 23 13 23 41 0 17 -6 22 -25 22 -22 0 -24 -2 -14 -26z"></path><path id="ps1qfENFG" d="M12300 4465 c0 -30 3 -35 24 -35 23 0 24 2 13 35 -6 19 -16 35 -24 35 -8 0 -13 -13 -13 -35z"></path><path id="po2F2VSDO" d="M13476 4428 c-10 -38 -7 -48 14 -48 16 0 20 7 20 35 0 40 -24 49 -34 13z"></path><path id="pdV0y5FWV" d="M13100 4411 c0 -49 9 -61 46 -61 27 0 34 4 34 20 0 13 -5 18 -15 13 -11 -4 -19 4 -28 26 -15 39 -37 41 -37 2z"></path></g></g><g id="lIDNuGRd0W7lIZuITAkaRe" fill="rgb(220,53,55)" style="transform: none;"><g><path id="pUdiXNTRd" d="M7993 8539 c-43 -23 -91 -52 -108 -65 -16 -12 -93 -56 -170 -97 -214 -114 -255 -139 -220 -131 38 9 264 122 289 146 11 10 26 18 33 18 7 0 13 5 13 11 0 5 5 7 10 4 6 -3 10 -3 10 2 0 4 15 15 33 22 17 8 54 29 81 48 26 18 52 33 58 33 5 0 22 9 37 21 31 23 61 23 69 0 3 -10 0 -12 -11 -8 -17 6 -147 -57 -202 -99 -16 -12 -93 -56 -170 -97 -234 -125 -349 -189 -380 -212 -24 -19 -220 -125 -370 -203 -16 -8 -59 -32 -95 -52 -36 -21 -103 -57 -150 -80 -47 -24 -136 -74 -199 -112 -62 -38 -136 -80 -165 -94 -67 -34 -93 -59 -122 -116 -32 -63 -51 -155 -63 -313 -6 -72 -20 -206 -31 -300 -11 -93 -25 -213 -30 -265 -6 -52 -13 -111 -15 -130 -2 -19 -11 -102 -20 -185 -9 -82 -32 -263 -51 -401 -19 -138 -41 -338 -49 -445 -8 -107 -22 -237 -30 -289 -9 -52 -20 -135 -25 -185 -6 -49 -15 -117 -20 -150 -11 -67 -12 -177 -1 -215 12 -43 109 -91 326 -159 55 -18 141 -48 190 -68 165 -65 180 -70 255 -93 41 -12 158 -53 260 -92 102 -38 205 -76 230 -83 107 -33 269 -89 360 -125 194 -76 557 -193 572 -184 4 3 8 -4 8 -16 0 -13 5 -20 13 -18 9 3 14 54 19 184 3 98 11 208 17 244 6 36 11 95 11 132 0 67 -13 97 -25 58 -9 -29 -23 -16 -36 33 -6 23 -26 67 -45 97 -19 31 -34 61 -34 68 0 6 -22 56 -50 110 -27 54 -50 103 -50 109 0 6 -27 65 -60 131 -33 67 -60 125 -60 131 0 5 -17 43 -38 83 -22 40 -44 90 -51 111 -7 20 -36 85 -66 145 -29 59 -56 118 -60 132 -4 14 -30 68 -56 121 -27 52 -49 100 -49 106 0 6 -27 65 -60 131 -33 65 -60 124 -60 130 0 5 -22 54 -49 108 -26 55 -52 110 -56 123 -4 13 -29 68 -56 122 -27 54 -49 102 -49 105 0 4 -25 62 -56 128 -120 259 -174 375 -219 476 -26 58 -67 147 -91 197 -31 67 -40 95 -31 100 13 9 461 15 482 7 7 -3 22 -29 33 -57 62 -161 95 -245 107 -272 7 -16 30 -73 49 -125 20 -52 49 -120 64 -150 l27 -55 307 0 308 0 0 921 c0 831 -2 922 -16 928 -35 14 -76 4 -151 -35z"></path><path id="pX0cMy2py" d="M7016 7992 c-3 -5 -23 -18 -43 -27 -91 -43 -226 -125 -207 -125 12 0 27 7 34 15 7 8 16 12 21 9 5 -3 9 0 9 5 0 6 4 11 10 11 11 0 143 72 174 96 11 7 17 16 14 20 -3 3 -9 1 -12 -4z"></path><path id="pWWljFDE0" d="M6672 7805 c-91 -48 -272 -159 -267 -163 7 -7 129 58 185 99 30 22 74 48 96 59 23 10 45 23 48 29 9 14 11 15 -62 -24z"></path><path id="pekMsWJc7" d="M6345 7618 c-51 -26 -83 -55 -102 -93 l-15 -30 35 35 c18 19 46 44 61 55 43 30 72 54 66 54 -3 0 -23 -9 -45 -21z"></path><path id="pPUWJYxFl" d="M7777 6287 c-31 -12 -31 -10 -3 -74 14 -32 47 -112 75 -178 178 -432 239 -564 259 -565 6 0 12 -7 12 -15 0 -8 6 -15 14 -15 22 0 25 62 28 477 l3 372 -183 3 c-101 2 -193 -1 -205 -5z"></path><path id="pChiVQ8mF" d="M5981 5550 c-1 -36 -4 -76 -8 -90 -3 -14 -3 -22 1 -19 13 12 23 98 16 136 -7 34 -8 31 -9 -27z"></path><path id="p10fjltFGL" d="M5900 4562 c0 -5 7 -15 15 -22 8 -7 15 -8 15 -2 0 5 -7 15 -15 22 -8 7 -15 8 -15 2z"></path><path id="p1Gz2gcmEU" d="M6000 4494 c0 -8 72 -36 78 -29 3 3 -4 8 -16 12 -12 3 -22 9 -22 14 0 5 -9 9 -20 9 -11 0 -20 -2 -20 -6z"></path><path id="pDT20KPwC" d="M6465 4323 c136 -53 167 -64 172 -59 3 3 -10 12 -28 20 -19 7 -47 20 -64 27 -16 7 -35 12 -42 10 -6 -1 -14 3 -18 9 -3 5 -18 10 -33 9 -24 0 -23 -2 13 -16z"></path><path id="pP0zi18t2" d="M6670 4251 c8 -5 31 -11 50 -15 l35 -6 -35 14 c-41 17 -75 21 -50 7z"></path><path id="p1FYPEEe0Z" d="M6810 4205 c48 -18 72 -18 36 0 -15 8 -38 15 -50 14 -15 0 -12 -4 14 -14z"></path><path id="pqcm95o3H" d="M6940 4165 c0 -8 5 -15 10 -15 6 0 49 -15 98 -34 48 -19 98 -37 112 -41 24 -6 24 -5 6 9 -11 9 -30 16 -42 16 -12 0 -27 7 -34 15 -7 9 -15 13 -18 10 -3 -3 -10 0 -17 5 -6 5 -22 12 -36 14 -13 3 -26 5 -29 6 -3 2 -8 2 -12 1 -5 0 -8 3 -8 8 0 5 -7 11 -15 15 -9 3 -15 0 -15 -9z"></path><path id="pq44YbPGO" d="M7990 3790 c52 -17 104 -30 115 -30 20 1 20 1 0 12 -27 16 -153 48 -184 47 -14 0 17 -13 69 -29z"></path></g></g><g id="l5tOu5DBgWrY9XII85lqFD5" fill="rgb(172,68,66)" style="transform: none;"><g><path id="p1EFi1yurN" d="M5804 11838 c-77 -81 -99 -136 -114 -281 -9 -93 -30 -143 -91 -211 -60 -69 -85 -200 -55 -296 18 -57 70 -186 130 -318 25 -56 46 -106 46 -110 0 -13 88 -181 119 -227 29 -44 197 -180 281 -227 30 -17 90 -51 133 -77 125 -74 147 -85 247 -126 l95 -40 285 0 c256 0 289 2 313 18 14 9 50 26 79 38 29 11 82 33 118 49 36 16 103 39 150 51 83 22 87 24 177 110 51 49 114 99 140 113 26 13 60 37 75 53 55 58 98 179 98 274 0 22 5 50 11 62 16 30 60 77 74 77 6 0 25 15 43 33 40 41 41 68 6 190 -28 97 -28 77 -8 345 7 93 -6 160 -38 189 -37 33 -98 132 -143 232 -25 54 -45 103 -45 110 0 8 -273 11 -1043 11 l-1043 0 -40 -42z"></path><path id="pHKRTtYWy" d="M12840 11835 c0 -43 3 -47 58 -90 31 -25 89 -61 127 -81 39 -21 100 -55 138 -77 l67 -39 -29 -33 c-16 -18 -34 -49 -40 -68 -18 -52 -2 -79 66 -113 80 -40 169 -40 266 0 82 34 117 72 117 126 0 31 -6 44 -32 66 -58 48 -132 76 -229 84 -49 4 -92 10 -96 14 -4 4 16 28 46 54 43 39 54 55 61 92 4 24 6 59 3 77 l-6 33 -258 0 -259 0 0 -45z"></path><path id="pMoYj4L5f" d="M4282 11493 c-4 -10 -7 -49 -7 -87 0 -64 2 -70 28 -90 23 -17 43 -21 104 -21 67 0 77 3 94 24 22 27 26 108 7 134 -8 9 -51 25 -105 37 -112 24 -112 24 -121 3z"></path><path id="pH97vgVby" d="M11217 11344 c-4 -4 -7 -27 -7 -50 0 -34 5 -46 21 -54 27 -15 33 -7 23 27 -4 15 -8 36 -10 46 -2 22 -18 40 -27 31z"></path><path id="plWxaZMYr" d="M9311 11291 c-10 -7 -12 -21 -8 -53 9 -68 23 -96 58 -114 41 -21 136 -29 172 -15 32 12 57 63 57 113 0 42 -8 54 -43 67 -34 13 -216 14 -236 2z"></path><path id="p1DYs4Qx3s" d="M4703 10810 c-27 -11 -43 -62 -50 -162 l-6 -77 29 -6 c16 -3 54 -14 84 -23 75 -23 213 -23 236 0 41 40 25 181 -26 228 -43 40 -206 64 -267 40z"></path><path id="ptR5BpnWL" d="M12877 10640 c-41 -12 -160 -86 -208 -129 -50 -45 -59 -82 -53 -210 5 -104 15 -132 97 -265 36 -60 42 -79 45 -135 3 -61 1 -70 -33 -126 -20 -33 -50 -86 -66 -117 l-29 -58 -71 0 c-59 0 -94 8 -208 48 l-136 47 -255 0 c-243 0 -259 -1 -335 -25 -76 -23 -92 -24 -345 -25 -251 0 -269 1 -336 23 -65 21 -79 32 -155 109 -124 126 -339 272 -440 298 -120 32 -306 26 -343 -10 -21 -21 -47 -141 -47 -216 0 -37 7 -97 16 -133 26 -103 35 -97 -160 -101 -220 -4 -345 -19 -410 -50 -28 -13 -76 -27 -106 -30 -84 -10 -228 -42 -294 -65 -41 -15 -103 -24 -195 -30 -74 -5 -153 -12 -175 -16 -54 -8 -352 -88 -445 -119 -87 -29 -130 -31 -191 -10 -69 25 -126 36 -243 46 -125 11 -199 26 -340 71 -83 26 -109 30 -162 25 -72 -7 -132 -34 -163 -73 -60 -76 -27 -139 114 -219 105 -59 144 -87 151 -108 19 -56 -14 -140 -66 -170 -17 -10 -79 -67 -138 -125 -112 -112 -158 -143 -402 -270 -99 -52 -109 -56 -200 -62 -177 -12 -298 0 -385 40 -64 29 -184 60 -235 60 -41 0 -53 -6 -113 -55 -89 -74 -101 -93 -94 -155 7 -59 34 -114 98 -198 46 -61 105 -192 116 -257 7 -45 -20 -98 -90 -173 -48 -52 -78 -100 -130 -206 -38 -75 -77 -170 -87 -209 -26 -103 -47 -146 -76 -159 -38 -18 -135 6 -224 55 -88 48 -142 52 -224 17 -168 -73 -162 -65 -170 -218 -5 -103 -3 -115 14 -132 11 -11 31 -20 45 -20 75 0 343 -80 370 -110 19 -21 22 -67 7 -97 -5 -10 -20 -58 -33 -108 -23 -85 -24 -107 -24 -365 l0 -275 37 -125 c92 -314 101 -351 94 -398 -7 -55 -27 -79 -75 -92 -54 -15 -333 -12 -436 5 -114 19 -285 21 -313 4 -11 -7 -27 -25 -36 -41 -17 -28 -17 -28 9 -38 14 -6 36 -10 47 -10 12 0 75 -13 142 -29 67 -17 182 -37 257 -45 75 -9 159 -24 185 -34 27 -11 74 -25 104 -32 71 -16 100 -44 130 -126 19 -49 42 -85 92 -140 37 -41 71 -86 74 -101 9 -36 46 -110 89 -177 46 -73 111 -228 137 -328 l21 -83 -47 -110 c-40 -95 -56 -120 -115 -180 -37 -38 -87 -96 -111 -128 -101 -135 -193 -187 -330 -187 -81 0 -120 -11 -155 -43 -11 -11 -40 -33 -65 -49 -117 -80 -160 -158 -112 -201 55 -50 132 -58 260 -27 103 25 126 40 164 107 38 68 65 89 151 115 73 22 111 52 185 146 18 23 45 48 60 56 43 22 262 75 338 82 123 11 168 -13 271 -142 17 -22 73 -69 125 -103 51 -35 113 -80 138 -100 101 -82 182 -126 325 -177 39 -14 71 -39 145 -115 56 -56 119 -110 152 -129 115 -63 224 -220 237 -339 l6 -56 90 2 c56 1 108 8 135 18 25 9 63 24 85 32 63 24 100 20 240 -25 72 -23 180 -51 240 -62 61 -11 144 -27 185 -35 41 -8 129 -17 195 -21 66 -3 147 -12 180 -19 33 -7 92 -16 130 -20 84 -7 220 -32 258 -47 15 -6 41 -26 57 -45 28 -32 29 -36 16 -61 -8 -15 -33 -38 -56 -52 -74 -45 -98 -69 -114 -118 -20 -64 -30 -147 -19 -167 5 -9 55 -31 110 -51 148 -50 162 -41 229 159 20 59 47 121 60 136 35 42 98 68 262 107 128 31 167 45 306 114 87 44 172 88 190 99 49 30 126 41 285 41 182 0 246 11 336 60 87 46 212 81 224 61 21 -33 -49 -218 -143 -380 -40 -69 -95 -169 -121 -221 -25 -52 -57 -106 -69 -120 -25 -27 -93 -124 -142 -200 -17 -26 -36 -74 -43 -106 -7 -33 -22 -90 -34 -129 -13 -44 -21 -103 -22 -160 -2 -78 -6 -98 -33 -154 -44 -92 -27 -111 108 -127 74 -8 79 0 53 88 -9 35 -18 92 -17 128 0 57 4 72 36 125 20 33 43 85 52 117 22 78 92 142 174 158 84 16 91 20 63 31 -23 9 -23 13 -19 82 9 122 87 319 172 432 25 33 53 76 62 95 9 19 26 55 38 80 11 24 59 83 106 130 54 54 98 108 119 148 24 47 71 102 179 210 l147 147 140 69 c77 38 176 90 221 117 46 27 105 54 135 60 76 16 210 87 329 174 144 105 227 145 301 145 52 0 59 2 59 20 0 18 -7 20 -67 21 -38 0 -90 4 -118 8 -27 5 -90 14 -140 20 -192 26 -520 126 -709 217 -313 149 -521 297 -767 545 -222 224 -425 537 -548 846 -131 331 -187 753 -151 1150 13 137 24 186 90 383 81 245 152 402 290 640 142 245 521 627 750 758 19 10 76 43 125 72 268 157 533 258 847 322 149 30 160 31 433 32 303 1 285 3 610 -70 128 -30 295 -84 363 -118 26 -14 88 -41 137 -61 131 -53 225 -106 360 -203 115 -82 375 -297 375 -311 0 -3 30 -37 66 -76 120 -127 312 -391 362 -497 220 -467 282 -694 298 -1095 5 -119 10 -163 19 -163 18 0 25 34 25 127 l0 81 72 12 c82 14 337 131 377 173 49 53 86 228 62 298 -6 19 -38 66 -71 104 -33 39 -81 98 -107 132 -65 83 -85 94 -181 94 -65 0 -99 -6 -186 -36 -58 -20 -111 -33 -117 -29 -7 4 -9 21 -6 40 8 50 -10 149 -38 204 -28 56 -72 110 -89 110 -16 0 -53 42 -97 110 -20 30 -57 87 -83 126 -25 40 -46 78 -46 86 0 9 29 28 70 46 38 17 98 51 132 75 35 25 87 57 117 72 29 14 102 56 162 91 144 85 163 113 162 229 0 95 -19 145 -80 210 -21 22 -60 65 -88 95 -82 90 -144 137 -249 191 -55 28 -118 66 -141 84 -55 45 -69 51 -180 80 -117 30 -180 33 -194 8 -19 -36 -60 -211 -66 -283 -11 -127 -9 -126 -115 -80 -71 31 -116 36 -186 20 -23 -5 -113 -10 -201 -11 -186 -3 -206 4 -242 80 -36 74 -93 152 -124 167 -15 9 -51 17 -80 20 -91 10 -112 20 -133 67 -11 23 -36 68 -57 100 -21 32 -47 78 -58 101 -11 23 -51 76 -90 117 -39 41 -96 106 -126 144 -31 39 -80 93 -109 120 -58 56 -95 138 -96 213 -1 41 3 47 88 133 49 49 105 99 124 111 19 11 71 44 115 73 71 47 184 95 350 150 28 9 64 27 81 40 46 35 128 174 149 251 17 64 17 69 -1 146 -10 44 -24 87 -32 94 -10 11 -50 14 -166 14 -150 0 -192 -6 -291 -43 -97 -36 -235 -27 -311 19 -150 92 -283 129 -367 104z m-4746 -2097 c6 -18 23 -34 47 -45 20 -9 93 -49 162 -88 151 -87 231 -130 420 -228 80 -42 181 -99 225 -127 113 -73 193 -118 410 -230 105 -54 253 -136 329 -183 77 -46 171 -99 209 -118 100 -51 101 -53 137 -424 6 -52 16 -129 25 -170 8 -41 19 -127 25 -190 32 -360 31 -356 61 -500 11 -52 25 -157 30 -234 5 -77 12 -142 14 -146 11 -18 55 -344 65 -485 6 -88 23 -227 37 -310 38 -230 62 -447 51 -467 -5 -10 -22 -25 -39 -34 -41 -21 -213 -83 -264 -96 -62 -14 -144 -43 -210 -73 -33 -15 -98 -38 -145 -50 -47 -13 -161 -50 -255 -83 -245 -86 -340 -119 -715 -243 -184 -61 -399 -134 -477 -162 -127 -46 -143 -54 -143 -75 0 -21 -1 -22 -27 -9 -38 20 -152 47 -194 47 -19 0 -40 5 -46 11 -6 6 -25 13 -42 15 -17 2 -50 13 -73 24 -23 11 -51 20 -63 20 -20 0 -96 28 -185 68 -19 8 -37 16 -40 16 -18 4 -70 30 -70 35 0 3 -17 7 -38 9 -20 1 -56 11 -79 22 -24 11 -50 20 -59 20 -9 0 -27 9 -41 20 -14 11 -36 20 -48 20 -12 0 -28 7 -35 15 -7 9 -15 13 -18 10 -3 -3 -10 0 -17 5 -6 5 -22 12 -36 14 -13 3 -25 5 -26 5 -2 1 -6 2 -10 3 -5 1 -14 8 -22 16 -10 10 -16 11 -21 2 -5 -9 -9 -9 -14 -1 -4 6 -18 11 -32 11 -13 0 -24 3 -24 8 0 9 -49 32 -68 32 -17 0 -135 38 -187 61 -73 31 -100 42 -110 44 -5 1 -17 4 -25 7 -8 4 -26 9 -40 11 -14 3 -63 19 -110 35 -47 17 -102 33 -124 36 -21 4 -51 15 -66 26 -16 11 -32 20 -37 20 -15 0 -63 25 -63 33 0 4 -9 7 -20 7 -31 0 -83 29 -105 58 -14 19 -21 47 -23 97 -4 74 22 389 38 460 5 22 16 102 25 178 9 76 21 150 26 165 6 15 11 67 10 117 -1 102 10 207 44 420 13 83 26 195 30 250 3 55 13 145 21 200 8 55 17 120 19 145 3 25 12 113 21 195 8 83 22 191 30 240 7 50 14 119 14 155 1 54 18 162 43 267 8 31 17 46 53 85 51 54 115 100 164 117 41 15 82 39 176 102 38 26 79 50 91 53 11 4 27 13 33 21 7 8 23 15 35 15 12 0 28 7 35 15 7 8 16 12 21 9 5 -3 9 0 9 5 0 6 4 11 10 11 14 0 158 81 180 102 11 10 22 18 26 18 4 0 17 9 28 19 12 11 82 51 156 89 74 38 159 83 188 100 29 18 65 35 80 38 37 9 262 124 286 146 11 10 26 18 33 18 7 0 13 5 13 11 0 5 5 7 10 4 6 -3 10 -3 10 2 0 4 15 15 33 22 17 8 54 29 81 48 26 18 53 33 58 33 5 0 21 9 35 20 36 28 62 26 74 -7z"></path><path id="p1HOgHq4br" d="M9066 7461 c-21 -8 -66 -119 -66 -164 0 -46 22 -27 48 39 12 32 26 66 31 74 7 12 44 16 202 21 107 3 195 6 197 7 1 1 2 9 2 17 0 13 -28 15 -197 14 -109 0 -206 -4 -217 -8z"></path><path id="pKTmTOIbS" d="M9560 7455 c0 -8 6 -15 14 -15 8 0 17 -4 20 -8 3 -5 -28 -78 -68 -163 -153 -320 -240 -506 -271 -579 -18 -41 -51 -113 -74 -159 -63 -125 -65 -131 -38 -131 18 0 31 17 70 95 26 52 47 104 47 114 0 11 4 21 9 23 5 2 34 57 64 123 30 66 105 225 166 354 61 129 111 241 111 248 0 7 5 13 10 13 6 0 10 23 10 50 l0 50 -35 0 c-24 0 -35 -5 -35 -15z"></path><path id="pvyXGOgl1" d="M8960 7214 c0 -44 18 -42 37 4 13 31 12 32 -12 32 -22 0 -25 -4 -25 -36z"></path><path id="pNtpE5Wys" d="M8896 7084 c-9 -25 -7 -74 4 -74 10 0 24 22 40 64 9 23 7 26 -14 26 -13 0 -27 -7 -30 -16z"></path><path id="p3oesSkGT" d="M8831 6939 c-13 -39 -14 -89 -2 -89 12 0 15 5 40 68 l21 52 -24 0 c-18 0 -27 -8 -35 -31z"></path><path id="pFGUYtddR" d="M8770 6780 c0 -20 -7 -20 -320 -20 -313 0 -320 0 -320 -20 0 -20 7 -20 330 -20 182 0 330 2 330 4 0 2 7 20 15 40 15 36 15 36 -10 36 -18 0 -25 -5 -25 -20z"></path><path id="ptxez0b1P" d="M9065 6290 c-8 -16 -20 -41 -25 -55 -8 -22 -7 -25 14 -25 26 0 46 34 46 80 0 38 -15 38 -35 0z"></path><path id="pK0PT2t7z" d="M8288 6293 c-10 -3 -18 -11 -18 -19 0 -11 24 -14 130 -14 l130 0 -20 -40 c-11 -21 -20 -53 -20 -70 0 -18 -5 -30 -13 -30 -8 0 -19 -11 -25 -25 -15 -32 -16 -85 -2 -85 12 0 142 269 135 281 -5 8 -265 10 -297 2z"></path><path id="p1CzmiWqUF" d="M8954 6053 c-26 -54 -70 -150 -99 -213 -28 -63 -96 -207 -149 -320 -54 -113 -131 -275 -171 -360 -41 -85 -120 -252 -176 -370 -56 -118 -113 -240 -126 -270 -13 -30 -35 -76 -48 -101 -30 -55 -32 -79 -7 -79 18 0 52 55 52 85 0 7 4 15 8 17 11 4 142 285 142 303 0 8 4 15 9 15 5 0 37 62 71 138 35 75 85 181 112 234 26 54 48 106 48 117 0 11 4 21 8 23 12 5 152 298 152 319 0 10 4 19 8 19 14 0 52 89 52 120 0 18 5 30 13 30 18 0 167 322 167 360 0 52 -19 33 -66 -67z"></path><path id="p1480YvzPP" d="M8347 5875 c-35 -72 -48 -135 -27 -135 9 0 79 130 100 186 8 21 7 24 -13 24 -18 0 -30 -15 -60 -75z"></path><path id="p1L8ICHd6" d="M8210 5564 c0 -44 18 -42 37 4 13 31 12 32 -12 32 -22 0 -25 -4 -25 -36z"></path><path id="pgdMwvLmZ" d="M8160 5454 c0 -44 18 -42 37 4 13 31 12 32 -12 32 -22 0 -25 -4 -25 -36z"></path><path id="pVbgApT9j" d="M8134 5374 c3 -9 6 -19 6 -22 0 -9 20 21 20 31 0 4 -7 7 -16 7 -11 0 -14 -5 -10 -16z"></path><path id="p1GUwIWxpM" d="M16312 10220 c-167 -97 -246 -303 -137 -354 70 -34 276 -49 355 -26 41 12 114 80 141 132 45 88 15 152 -98 204 -43 19 -84 41 -93 49 -8 7 -38 16 -65 20 -44 5 -56 2 -103 -25z"></path><path id="p1CGZaD4GB" d="M5780 9733 c-60 -9 -156 -37 -169 -49 -10 -9 -14 -41 -13 -125 2 -182 1 -180 149 -218 116 -30 186 -28 245 7 77 45 158 157 158 219 0 38 -33 89 -72 113 -62 38 -219 66 -298 53z"></path><path id="plu0DUvtM" d="M6485 9555 c-31 -30 -78 -132 -71 -152 10 -26 127 -73 181 -73 75 0 95 8 95 37 0 56 -103 191 -157 208 -17 4 -29 -1 -48 -20z"></path><path id="ppTwmcahy" d="M3796 9489 c-32 -25 -23 -41 32 -65 47 -19 61 -18 71 9 12 30 -2 53 -40 66 -39 14 -32 15 -63 -10z"></path><path id="p1ENIzYDYK" d="M15867 9450 c-20 -4 -41 -10 -45 -14 -4 -4 -8 -112 -10 -239 l-3 -231 45 -91 c51 -104 83 -133 188 -167 47 -16 90 -21 168 -22 147 -1 191 20 322 156 54 56 107 120 119 144 19 40 19 47 7 96 -20 77 -98 197 -180 274 -109 102 -115 104 -363 103 -115 -1 -227 -5 -248 -9z"></path><path id="px5IgOgx1" d="M4322 8807 c-49 -52 -37 -198 20 -240 30 -23 149 -28 188 -8 58 31 76 100 48 192 -18 63 -37 73 -141 77 -88 4 -93 3 -115 -21z"></path><path id="pbM0HQWgQ" d="M3164 8698 c-103 -64 -124 -123 -84 -232 28 -74 72 -131 128 -167 41 -27 54 -30 97 -26 65 7 197 51 236 79 39 29 73 100 64 135 -3 14 -30 54 -60 87 -50 58 -60 64 -149 95 -108 37 -200 49 -232 29z"></path><path id="p9EsTkDNQ" d="M4774 8565 c-14 -14 -32 -42 -40 -62 -15 -35 -15 -37 8 -60 67 -66 128 -38 136 64 4 46 2 59 -14 70 -28 20 -62 16 -90 -12z"></path><path id="pJA30ZjyW" d="M5043 8441 c-38 -17 -73 -80 -73 -134 0 -46 2 -49 38 -64 47 -21 192 -25 217 -7 24 18 36 90 22 133 -17 49 -53 72 -123 77 -32 2 -69 0 -81 -5z"></path><path id="pTHolGL8h" d="M3335 7564 c-48 -17 -85 -56 -85 -91 0 -35 27 -90 71 -143 39 -48 125 -97 251 -145 112 -42 143 -30 143 55 0 43 -8 59 -70 150 -65 95 -119 151 -172 179 -29 15 -89 13 -138 -5z"></path><path id="puA9OND6I" d="M15987 7348 c-8 -5 -12 -46 -12 -120 0 -139 9 -158 102 -221 118 -80 191 -84 299 -16 80 51 100 153 43 222 -38 46 -62 59 -207 108 -111 38 -191 48 -225 27z"></path><path id="pt2PG2DPl" d="M18550 6568 c-62 -7 -98 -17 -132 -36 -72 -41 -156 -102 -212 -154 l-51 -47 0 -94 c0 -81 3 -98 20 -117 11 -12 98 -61 192 -108 l173 -86 55 11 c30 7 91 30 136 52 45 23 87 41 93 41 14 0 142 103 177 142 18 20 28 45 33 81 8 67 8 211 0 231 -8 20 -132 60 -250 80 -98 17 -110 18 -234 4z"></path><path id="p6bYc44Pj" d="M13896 6238 c-10 -38 -7 -48 14 -48 16 0 20 7 20 35 0 40 -24 49 -34 13z"></path><path id="pu394bLeZ" d="M15570 5893 c0 -32 -9 -121 -21 -198 -62 -412 -253 -834 -536 -1185 -162 -202 -448 -450 -669 -580 -260 -154 -625 -288 -887 -325 -56 -8 -138 -22 -182 -30 -44 -8 -115 -14 -157 -15 -71 0 -78 -2 -78 -20 0 -18 7 -20 57 -20 31 0 107 5 169 11 61 7 123 9 137 5 43 -10 154 -128 168 -178 7 -23 17 -49 22 -55 22 -29 118 -2 160 45 24 27 32 112 17 187 -6 33 -12 66 -13 74 -1 9 50 32 158 71 151 54 244 97 515 236 63 32 138 67 167 77 28 9 77 37 109 60 82 60 205 200 243 274 17 34 44 77 59 95 101 118 246 333 330 488 82 152 174 406 221 610 23 98 51 309 51 381 0 42 -3 49 -20 49 -18 0 -20 -7 -20 -57z"></path><path id="pjvde9tBV" d="M3920 5532 c-39 -15 -45 -22 -48 -50 -5 -52 17 -137 41 -160 35 -33 149 -82 206 -89 41 -5 55 -2 71 12 58 53 -23 241 -124 289 -43 20 -89 20 -146 -2z"></path><path id="pVWZie4tD" d="M15728 4247 c-96 -103 -117 -205 -66 -306 30 -58 65 -71 204 -78 l101 -5 42 37 c63 57 92 112 92 178 2 107 -55 164 -195 197 -50 12 -100 23 -111 25 -14 3 -34 -11 -67 -48z"></path><path id="pMXa5nbwm" d="M17063 3353 c-35 -3 -43 -8 -52 -34 -17 -49 -25 -173 -12 -196 12 -24 72 -59 157 -93 32 -13 64 -27 69 -31 32 -22 240 -79 290 -79 76 0 119 45 116 119 -2 67 -33 123 -84 151 -23 13 -55 33 -72 46 -16 12 -75 43 -130 69 -86 41 -110 48 -170 50 -38 2 -89 1 -112 -2z"></path><path id="pswGDB4qZ" d="M13938 3163 c-7 -29 21 -75 64 -110 22 -18 44 -33 50 -33 5 0 20 11 33 24 20 20 24 31 19 58 -11 57 -39 78 -105 78 -47 0 -58 -3 -61 -17z"></path><path id="pWdg2Az6f" d="M4290 3020 c-19 -5 -87 -27 -150 -49 -126 -45 -154 -67 -211 -166 -48 -83 -36 -127 40 -140 48 -8 97 5 179 47 76 39 234 162 256 200 22 36 21 95 -1 102 -42 11 -80 13 -113 6z"></path><path id="pvnCGuDxN" d="M3375 2983 c-165 -37 -500 -206 -597 -301 -41 -40 -48 -52 -48 -85 0 -32 7 -46 38 -77 47 -48 91 -60 217 -60 89 0 106 3 160 28 33 16 74 40 90 54 17 14 68 45 115 68 112 56 153 90 194 160 60 103 58 137 -16 190 -40 30 -91 37 -153 23z"></path><path id="peJMnrIFc" d="M4566 2946 c-122 -29 -130 -37 -123 -126 7 -86 25 -102 147 -124 137 -26 202 -12 269 57 32 34 33 38 29 97 -3 49 -9 66 -31 87 -23 24 -35 27 -109 29 -59 2 -111 -4 -182 -20z"></path><path id="pW9YKgx7q" d="M14680 2613 c-51 -8 -106 -34 -124 -59 -16 -23 -17 -31 -7 -66 17 -55 39 -73 109 -88 87 -18 147 -9 184 27 25 26 30 38 31 87 1 69 -10 82 -82 96 -54 10 -66 10 -111 3z"></path><path id="pF9tS3iMa" d="M7285 2391 c-63 -16 -134 -66 -165 -116 -39 -63 -21 -173 37 -226 49 -45 87 -54 226 -54 116 0 130 2 143 19 18 26 18 93 -1 197 -21 111 -31 135 -69 159 -36 22 -125 33 -171 21z"></path><path id="pmqjzlaoU" d="M3272 2318 c-7 -7 -12 -33 -12 -59 0 -40 5 -51 27 -68 23 -19 29 -20 47 -8 33 22 34 88 1 121 -29 29 -45 32 -63 14z"></path><path id="pEECKFNui" d="M13795 1643 c-78 -8 -91 -45 -53 -159 26 -81 92 -158 170 -198 31 -16 96 -36 158 -48 114 -21 156 -38 164 -65 3 -10 4 -68 3 -130 -2 -101 0 -114 18 -131 11 -11 73 -37 139 -57 l118 -38 52 26 c28 14 70 30 93 36 73 20 133 122 133 227 0 37 -5 46 -32 67 -47 35 -92 47 -188 53 -119 6 -189 22 -215 48 -13 13 -30 49 -40 81 -16 58 -68 150 -96 171 -8 5 -34 19 -59 29 -25 11 -61 29 -80 42 -67 43 -162 58 -285 46z"></path><path id="pwLj7Fmn3" d="M6285 1353 c-11 -2 -60 -18 -110 -36 -78 -28 -98 -40 -149 -91 -65 -66 -125 -178 -133 -250 -5 -40 -3 -45 28 -68 66 -49 149 -88 188 -88 43 0 168 40 214 69 54 33 60 53 65 207 5 166 0 202 -33 238 -24 26 -31 28 -70 19z"></path><path id="ps4FlfKNG" d="M15580 854 c-54 -11 -96 -27 -117 -47 -20 -18 -23 -30 -23 -96 1 -72 15 -155 38 -212 16 -41 75 -85 138 -103 33 -10 136 -42 230 -72 94 -30 180 -54 193 -54 72 0 172 96 192 184 21 94 -6 165 -97 258 -88 90 -224 138 -404 143 -69 2 -136 1 -150 -1z"></path><path id="p9hjyUjhu" d="M20867 795 c-45 -9 -66 -20 -98 -51 -52 -51 -66 -97 -50 -168 15 -67 59 -120 146 -175 118 -75 205 -104 470 -157 117 -23 106 -47 103 218 l-3 231 -60 13 c-33 7 -107 22 -165 33 -58 11 -125 27 -150 36 -72 26 -131 32 -193 20z"></path><path id="pC4YKlFnr" d="M8084 721 c-52 -24 -80 -69 -101 -163 -20 -93 -12 -194 20 -234 20 -26 23 -26 93 -21 78 6 126 25 148 60 33 52 48 237 25 308 -6 19 -20 42 -31 52 -27 23 -101 22 -154 -2z"></path><path id="pk2FoGK9Q" d="M10340 525 c-128 -28 -145 -47 -145 -164 1 -107 22 -218 46 -242 17 -17 36 -19 148 -19 71 0 141 4 154 9 36 14 65 68 78 147 10 59 10 77 -5 128 -28 94 -74 130 -191 149 -16 2 -55 -1 -85 -8z"></path><path id="p1BenTmi0a" d="M7996 25 c-9 -24 -8 -25 15 -25 14 0 19 5 17 17 -4 23 -24 27 -32 8z"></path></g></g><g id="l6ExCytbS2lZglhLDnEJ9ex" fill="rgb(177,48,51)" style="transform: none;"><g><path id="pyMet5bAO" d="M8142 8547 c-8 -9 -12 -279 -12 -915 0 -855 1 -902 17 -903 129 -4 637 2 643 8 4 4 23 49 43 98 20 50 52 124 71 166 40 87 93 214 142 339 19 51 39 87 51 91 10 4 127 8 261 8 194 1 242 -2 242 -12 0 -8 -14 -42 -31 -78 -39 -80 -160 -337 -294 -624 -57 -121 -148 -314 -203 -430 -55 -115 -141 -300 -192 -410 -51 -110 -132 -283 -180 -385 -48 -102 -122 -259 -165 -350 -43 -91 -105 -223 -140 -295 -34 -71 -100 -213 -147 -315 -83 -178 -86 -189 -98 -295 -17 -147 -25 -454 -12 -467 6 -6 56 8 143 40 74 28 292 102 484 166 391 130 485 162 730 248 94 33 208 70 255 83 47 12 112 35 145 50 66 30 148 59 210 73 51 13 223 76 265 97 51 26 54 45 36 211 -10 82 -30 228 -46 324 -15 96 -34 247 -40 335 -10 141 -54 467 -65 485 -2 4 -9 69 -14 146 -5 77 -19 182 -30 234 -30 144 -29 140 -61 500 -6 63 -17 149 -25 190 -9 41 -19 118 -25 170 -36 371 -37 373 -137 424 -38 19 -132 72 -209 118 -76 47 -224 129 -329 183 -219 113 -298 158 -412 231 -44 29 -130 78 -190 108 -194 100 -448 238 -611 335 -61 36 -56 35 -70 18z"></path><path id="pR8ByDuHe" d="M8104 6283 l38 -4 -6 -52 c-3 -29 -7 -231 -8 -450 -2 -441 1 -466 48 -361 15 32 74 158 132 279 58 121 138 292 179 380 41 88 79 164 84 170 5 5 9 17 9 27 0 17 -16 18 -257 16 -142 -1 -241 -3 -219 -5z"></path><path id="p6JUTCdyA" d="M7911 4875 c0 -5 8 -26 19 -45 11 -19 19 -30 19 -25 0 6 -8 26 -19 45 -11 19 -19 31 -19 25z"></path></g></g><g id="l6wRbmB51VOWq5agVj6IoEz" fill="rgb(124,58,73)" style="transform: none;"><g><path id="p6WKj8LRk" d="M12730 8580 c-170 -15 -444 -82 -620 -149 -109 -43 -311 -140 -415 -201 -49 -29 -106 -62 -125 -72 -182 -104 -482 -388 -668 -633 -72 -94 -235 -396 -292 -540 -40 -100 -123 -350 -144 -430 -16 -63 -36 -254 -36 -342 0 -45 3 -53 18 -53 17 0 20 13 26 127 9 164 29 262 71 348 19 39 35 73 35 78 0 4 9 26 19 50 23 49 47 120 66 193 13 47 50 122 66 134 4 3 22 34 41 70 31 61 126 219 138 230 3 3 26 37 52 75 27 39 64 88 84 110 21 22 59 67 85 101 97 122 299 300 480 420 93 63 200 129 237 148 64 33 285 135 327 150 34 13 197 53 245 61 25 4 77 16 115 26 214 59 708 64 985 8 191 -37 266 -60 400 -121 25 -11 78 -34 118 -50 41 -16 99 -45 130 -65 30 -20 85 -49 121 -65 80 -37 253 -159 289 -205 15 -19 68 -61 118 -93 91 -59 115 -83 269 -269 33 -40 84 -100 113 -134 30 -34 66 -87 81 -118 16 -32 40 -70 55 -85 14 -16 33 -51 43 -79 9 -27 29 -72 45 -100 53 -93 105 -210 141 -315 43 -128 51 -164 72 -310 9 -63 20 -128 25 -145 11 -34 19 -535 9 -535 -12 0 -39 -80 -39 -115 0 -24 -5 -35 -15 -35 -12 0 -15 -14 -15 -67 0 -89 -10 -143 -25 -143 -13 0 -25 -43 -25 -90 0 -16 -7 -30 -15 -34 -11 -4 -15 -21 -15 -61 0 -65 -32 -145 -60 -152 -10 -3 -24 -18 -30 -34 -7 -16 -16 -29 -20 -29 -5 0 -11 -13 -15 -29 -3 -16 -13 -35 -21 -42 -8 -6 -14 -22 -14 -35 0 -13 -10 -45 -21 -71 -12 -27 -27 -59 -33 -73 -6 -14 -21 -36 -34 -50 -12 -14 -25 -34 -28 -45 -11 -33 -87 -138 -103 -142 -9 -2 -32 -23 -51 -45 -19 -23 -105 -112 -190 -198 -108 -109 -181 -174 -240 -212 -47 -31 -94 -66 -105 -78 -24 -26 -67 -50 -92 -50 -10 0 -45 -19 -78 -41 -96 -67 -141 -89 -183 -89 -23 0 -45 -6 -52 -15 -7 -8 -30 -18 -52 -21 -21 -4 -41 -11 -44 -15 -3 -5 -12 -9 -20 -9 -8 0 -39 -11 -67 -24 -29 -13 -72 -31 -97 -41 -25 -9 -63 -25 -85 -35 -86 -39 -200 -54 -420 -56 -115 -1 -285 -5 -377 -9 -152 -7 -177 -5 -255 14 -49 11 -146 32 -218 47 -145 29 -205 48 -380 124 -190 82 -219 97 -349 185 -202 136 -233 161 -416 345 -236 237 -294 305 -355 413 -28 51 -74 124 -103 162 -68 91 -174 307 -206 420 -24 81 -37 143 -81 385 -7 41 -21 150 -31 243 -12 117 -21 167 -29 167 -22 0 -25 -43 -15 -181 36 -483 136 -801 372 -1187 181 -296 461 -588 743 -774 196 -129 439 -249 623 -307 187 -58 346 -98 442 -111 47 -6 114 -16 150 -22 106 -17 430 -13 540 7 52 9 139 23 192 30 256 37 624 173 882 325 221 130 507 378 669 580 284 352 472 768 538 1190 18 119 22 187 23 380 1 457 -57 690 -296 1198 -50 106 -242 370 -362 497 -36 39 -66 73 -66 76 0 14 -260 229 -375 311 -135 97 -229 150 -360 203 -49 20 -111 47 -137 61 -101 51 -258 97 -538 156 -136 28 -161 30 -400 33 -140 2 -293 0 -340 -5z"></path><path id="pkLpGT66J" d="M13543 7860 c-30 -13 -43 -25 -43 -40 0 -14 -7 -20 -21 -20 -34 0 -53 -61 -53 -170 -1 -77 3 -104 21 -143 12 -26 30 -50 39 -54 10 -3 25 -14 35 -24 10 -10 35 -22 56 -28 49 -14 183 -14 183 -1 0 6 11 10 25 10 22 0 25 4 25 35 0 28 -4 35 -20 35 -11 0 -20 5 -20 10 0 6 -16 10 -35 10 -29 0 -35 -4 -35 -21 0 -19 4 -20 40 -14 22 4 40 3 40 -2 0 -24 -29 -33 -101 -33 -70 0 -81 3 -125 33 -62 42 -88 92 -92 182 -5 91 23 146 92 189 40 25 57 30 109 29 72 -1 117 -16 117 -39 0 -12 -5 -14 -17 -9 -10 4 -30 10 -45 13 -23 3 -28 1 -28 -16 0 -21 24 -32 73 -32 26 0 27 2 27 54 l0 53 -37 7 c-75 12 -167 6 -210 -14z"></path><path id="pjPr8M0kO" d="M12720 7861 c0 -6 -7 -11 -15 -11 -8 0 -18 -12 -21 -27 -4 -15 -11 -32 -16 -38 -5 -5 -20 -32 -33 -60 l-23 -50 -1 88 -1 87 -37 -1 c-21 -1 -30 -3 -21 -6 16 -4 18 -23 20 -179 l3 -175 80 173 c45 95 85 173 90 172 12 -1 17 -10 104 -194 l69 -145 1 88 c1 79 -1 87 -18 87 -14 0 -28 19 -52 70 -17 39 -35 70 -40 70 -4 0 -9 12 -11 28 -3 23 -8 27 -40 30 -22 2 -38 -1 -38 -7z"></path><path id="pky17VnHG" d="M12890 7835 c0 -39 24 -50 33 -15 8 33 37 25 37 -10 0 -23 4 -30 20 -30 16 0 20 7 20 35 0 28 -4 35 -20 35 -11 0 -20 5 -20 10 0 6 -16 10 -35 10 -33 0 -35 -2 -35 -35z"></path><path id="p83aBJNfg" d="M13088 7656 c-43 -112 -78 -217 -78 -234 0 -29 3 -31 45 -38 25 -3 50 -4 57 -1 7 2 32 58 56 123 23 66 47 125 51 133 6 9 15 -4 31 -45 47 -127 73 -189 82 -192 4 -2 8 -10 8 -18 0 -10 13 -14 45 -14 l45 0 0 53 c0 41 -15 90 -72 235 -64 163 -74 182 -94 182 l-24 0 21 -52 c106 -267 140 -361 135 -375 -14 -37 -32 -1 -137 275 -17 46 -35 80 -39 75 -5 -4 -35 -82 -68 -173 -55 -152 -79 -196 -98 -177 -9 8 -6 16 84 255 40 106 70 172 78 172 8 0 14 5 14 10 0 6 -15 10 -32 10 l-33 0 -77 -204z"></path><path id="pGKaQO8Vt" d="M13585 7791 c-64 -39 -91 -101 -82 -187 9 -85 57 -147 127 -160 25 -5 30 -3 30 12 0 12 -12 25 -32 33 -41 19 -63 41 -76 81 -16 45 -15 89 3 124 8 15 15 35 15 42 0 8 9 14 20 14 11 0 20 5 20 10 0 6 9 10 20 10 13 0 20 7 20 20 0 25 -25 26 -65 1z"></path><path id="pgid21AYD" d="M12958 7593 c-4 -242 -9 -243 -123 -7 -49 102 -89 174 -94 168 -8 -8 -113 -230 -147 -311 -14 -32 -13 -33 9 -33 20 0 31 17 83 130 55 121 74 150 74 115 0 -25 33 -85 47 -85 7 0 13 -11 13 -24 0 -29 19 -86 30 -86 4 0 10 -13 13 -29 9 -45 33 -62 81 -59 40 3 41 4 48 48 3 25 7 114 7 198 1 145 0 152 -19 152 -19 0 -20 -8 -22 -177z"></path><path id="pLBzRQ5JR" d="M12500 7420 c0 -39 1 -40 35 -40 24 0 35 5 35 15 0 8 -7 15 -15 15 -8 0 -17 11 -21 25 -10 41 -34 31 -34 -15z"></path><path id="paDyjPUva" d="M12360 7143 c0 -19 8 -21 143 -26 113 -4 161 -10 232 -31 155 -46 290 -119 415 -225 l35 -30 -34 -35 c-19 -20 -39 -36 -44 -36 -5 0 -30 17 -56 39 -122 101 -268 168 -428 196 -116 20 -143 20 -143 -4 0 -15 11 -19 70 -25 147 -13 337 -96 468 -203 68 -54 105 -57 157 -12 31 28 35 37 35 80 0 27 -4 49 -8 49 -5 0 -28 18 -51 40 -23 22 -48 40 -55 40 -8 0 -16 7 -19 15 -4 8 -57 39 -119 69 -154 75 -273 105 -455 113 -139 6 -143 5 -143 -14z"></path><path id="ppIdEXpHw" d="M12185 7126 c-126 -33 -205 -65 -205 -82 0 -9 -11 -14 -29 -14 -16 0 -36 -6 -43 -12 -7 -7 -31 -22 -52 -33 -21 -11 -41 -25 -43 -32 -3 -7 -11 -13 -19 -13 -8 0 -19 -9 -26 -20 -7 -11 -18 -20 -23 -20 -16 0 -95 -84 -95 -101 0 -8 -9 -19 -21 -24 -12 -6 -28 -23 -38 -40 -9 -16 -22 -36 -30 -45 -29 -31 -100 -198 -126 -300 -21 -80 -29 -137 -33 -242 -5 -136 -4 -138 17 -138 20 0 21 4 21 114 0 270 117 540 311 720 138 128 286 205 489 253 73 17 110 30 110 39 0 21 -61 17 -165 -10z"></path><path id="pxyxJuRB8" d="M12327 6999 c-281 -41 -541 -226 -672 -479 -75 -147 -90 -216 -89 -420 0 -164 2 -181 28 -260 98 -298 335 -522 636 -602 122 -32 349 -32 465 1 109 30 247 98 333 165 40 31 76 56 80 56 11 -1 72 -59 72 -69 0 -5 -27 -31 -60 -58 -183 -150 -416 -233 -651 -233 -92 0 -99 -1 -99 -20 0 -18 7 -20 88 -20 145 1 295 28 422 78 36 14 67 28 70 31 3 3 26 16 53 28 26 13 47 27 47 33 0 5 7 10 15 10 8 0 15 5 15 10 0 6 7 10 15 10 8 0 15 7 15 15 0 8 8 15 18 15 25 0 42 19 42 47 0 18 6 23 25 23 21 0 25 5 25 32 0 48 -65 108 -118 108 -32 0 -45 -6 -65 -30 -14 -16 -30 -30 -36 -30 -5 0 -14 -6 -18 -12 -4 -7 -19 -19 -33 -27 -203 -116 -284 -142 -455 -148 -109 -5 -144 -2 -218 16 -96 23 -210 72 -281 120 -24 17 -48 31 -53 31 -4 0 -14 9 -21 20 -7 11 -21 20 -32 20 -11 0 -20 6 -20 13 0 16 -42 57 -58 57 -7 0 -12 7 -12 15 0 8 -21 43 -46 77 -58 80 -85 132 -120 238 -26 79 -28 97 -28 245 -1 154 1 163 31 255 27 80 76 174 136 264 19 29 124 127 185 174 116 88 340 172 458 172 37 0 44 3 44 20 0 23 -28 24 -133 9z"></path><path id="poHzh78qK" d="M14065 6654 c-55 -14 -115 -36 -115 -43 0 -3 -13 -12 -30 -18 -22 -8 -30 -18 -30 -36 0 -21 -6 -26 -27 -29 -53 -6 -118 -146 -130 -280 -5 -58 -4 -68 10 -68 11 0 18 12 22 38 29 188 103 305 231 368 57 28 65 29 199 29 129 0 146 -2 215 -28 103 -38 112 -46 114 -102 2 -66 -5 -71 -51 -41 -53 35 -128 63 -192 72 -47 6 -51 5 -51 -13 0 -16 9 -22 42 -27 57 -9 166 -54 190 -78 13 -13 30 -18 56 -16 l37 3 3 82 c4 108 -7 120 -158 170 -45 14 -295 27 -335 17z"></path><path id="pmm3QhJ37" d="M13160 6605 c0 -19 5 -35 10 -35 6 0 10 7 10 15 0 11 12 15 50 15 28 0 53 1 57 3 4 1 9 -5 10 -13 9 -70 15 -90 29 -90 12 0 14 13 12 68 l-3 67 -87 3 -88 3 0 -36z"></path><path id="p1DAyHcZIa" d="M14125 6511 c-127 -32 -213 -143 -231 -300 l-7 -61 284 0 c156 0 294 3 307 6 12 4 22 13 22 20 0 12 -49 14 -285 14 l-286 0 6 38 c23 133 145 252 259 252 19 0 26 5 26 20 0 16 -6 20 -32 19 -18 -1 -46 -4 -63 -8z"></path><path id="plxjT54Ob" d="M14530 6178 c0 -8 14 -19 30 -25 17 -6 30 -18 30 -27 0 -9 7 -16 16 -16 12 0 14 9 12 38 -3 36 -4 37 -45 40 -31 2 -43 -1 -43 -10z"></path><path id="p1Af74yT71" d="M13314 6040 c27 -203 162 -326 304 -276 l42 15 0 -60 c0 -69 -5 -73 -90 -73 -99 -1 -169 42 -228 137 l-37 61 -3 -92 -3 -92 -54 0 c-50 0 -55 2 -61 25 -10 41 -34 31 -34 -14 0 -35 3 -39 31 -45 48 -9 119 -7 119 4 0 6 9 10 20 10 16 0 20 7 20 35 0 28 4 35 20 35 15 0 20 -7 20 -26 0 -17 6 -28 20 -31 11 -3 20 -9 20 -13 0 -25 201 -41 254 -20 25 9 26 12 26 100 l0 90 -36 0 c-20 0 -54 -5 -75 -12 -44 -13 -114 3 -123 28 -3 8 -12 14 -21 14 -8 0 -15 7 -15 15 0 8 -4 15 -10 15 -5 0 -10 7 -10 15 0 8 -6 15 -14 15 -8 0 -16 14 -19 33 -18 114 -32 157 -51 157 -17 0 -18 -5 -12 -50z"></path><path id="pBrm4q8o0" d="M13730 6054 c0 -88 68 -274 100 -274 6 0 10 -5 10 -12 0 -16 51 -68 67 -68 7 0 13 -5 13 -11 0 -19 128 -71 190 -76 49 -5 60 -3 60 9 0 16 -28 28 -65 28 -33 0 -140 56 -186 97 -81 73 -131 172 -154 306 -8 50 -35 51 -35 1z"></path><path id="p1HGGpyS70" d="M14586 6068 c-3 -13 -6 -39 -6 -59 0 -44 -25 -130 -55 -189 -42 -82 -126 -145 -229 -171 -59 -15 -63 -39 -5 -39 42 0 159 45 159 61 0 5 6 9 14 9 19 0 80 70 106 119 44 86 69 291 36 291 -7 0 -16 -10 -20 -22z"></path><path id="padnwZVwF" d="M13903 6011 c7 -59 49 -143 92 -186 54 -54 111 -76 199 -78 136 -2 217 67 251 215 13 58 14 73 3 79 -7 5 -84 9 -170 9 -151 0 -158 -1 -158 -20 0 -19 7 -20 145 -20 90 0 145 -4 145 -10 0 -5 -9 -37 -21 -70 -46 -134 -164 -181 -297 -118 -58 28 -84 55 -121 130 l-32 63 86 3 c77 3 85 5 85 22 0 19 -7 20 -106 20 l-107 0 6 -39z"></path><path id="p14Z2BrjW" d="M11410 5961 c0 -108 83 -332 171 -462 53 -80 157 -189 178 -189 9 0 21 -10 26 -21 6 -12 28 -31 49 -43 22 -11 46 -27 54 -33 7 -7 20 -13 28 -13 8 0 14 -4 14 -9 0 -12 139 -70 225 -93 39 -10 98 -22 133 -25 53 -5 62 -3 62 10 0 11 -12 18 -37 23 -233 39 -412 126 -566 273 -156 149 -264 357 -302 584 -8 52 -35 51 -35 -2z"></path><path id="p1H0I2O5MB" d="M11866 4828 c-11 -43 -6 -73 24 -143 16 -38 52 -130 80 -202 l52 -133 49 0 c59 0 51 -13 148 244 46 121 71 201 69 220 -3 30 -5 31 -52 31 -53 0 -52 1 -85 -77 l-20 -48 -59 0 -60 0 -22 52 c-28 66 -41 78 -83 78 -27 0 -36 -5 -41 -22z m314 -218 c-74 -193 -98 -239 -118 -226 -6 3 -32 61 -58 129 -26 67 -62 159 -80 205 -19 45 -34 84 -34 87 0 3 9 5 19 5 14 0 26 -17 44 -62 l25 -63 93 0 94 0 20 51 c26 64 45 88 58 75 7 -7 -15 -75 -63 -201z"></path><path id="pg6kICkrb" d="M12000 4635 c0 -18 59 -176 70 -188 8 -9 80 184 73 196 -2 4 -35 7 -74 7 -55 0 -69 -3 -69 -15z m83 -45 c-4 -17 -23 -29 -23 -16 0 2 -3 11 -6 20 -4 11 0 16 14 16 15 0 19 -5 15 -20z"></path><path id="pmKJJiUAW" d="M12338 4843 c-14 -4 -18 -15 -18 -59 0 -53 1 -54 29 -54 15 0 43 5 60 11 25 9 38 9 57 -1 37 -20 31 -53 -11 -69 -19 -7 -35 -17 -35 -22 0 -5 -7 -9 -15 -9 -8 0 -24 -9 -35 -20 -11 -11 -24 -20 -29 -20 -23 0 -41 -47 -41 -106 0 -71 6 -94 26 -94 8 0 14 -6 14 -14 0 -27 83 -49 160 -44 39 3 73 8 76 10 2 3 7 29 11 58 l6 53 -67 -7 c-67 -7 -106 3 -106 27 0 7 39 36 86 66 64 40 90 63 100 87 24 58 14 153 -18 161 -10 3 -18 11 -18 18 0 15 -51 35 -91 35 -46 0 -34 -24 21 -43 53 -19 80 -53 80 -102 0 -44 -18 -64 -105 -120 -91 -59 -109 -81 -99 -120 10 -39 56 -58 126 -52 44 4 58 2 58 -8 0 -18 -23 -25 -81 -25 -96 0 -160 57 -144 129 7 35 45 70 123 113 66 38 86 66 77 109 -12 55 -99 71 -189 34 -14 -6 -17 -4 -14 11 2 12 19 25 46 34 51 17 56 41 10 39 -18 -1 -41 -3 -50 -6z"></path><path id="pUlsSYTjf" d="M12663 4835 c-10 -10 -13 -72 -13 -234 0 -121 3 -226 6 -235 8 -21 74 -22 74 -2 0 7 -9 16 -20 19 -19 5 -20 14 -20 216 0 204 1 211 20 211 17 0 20 -7 20 -45 0 -38 3 -45 20 -45 17 0 20 7 20 45 0 33 -4 45 -15 45 -8 0 -15 9 -15 20 0 16 -7 20 -32 20 -18 -1 -39 -7 -45 -15z"></path><path id="p1CkdjcDtk" d="M12947 4843 c-4 -3 -7 -28 -7 -55 l0 -48 35 0 c19 0 35 5 35 10 0 6 11 10 25 10 22 0 25 4 25 35 0 28 -4 35 -20 35 -11 0 -20 5 -20 10 0 11 -63 14 -73 3z m68 -54 c0 -28 -29 -38 -39 -13 -7 19 11 47 28 41 6 -2 11 -14 11 -28z"></path><path id="pJzZil75o" d="M13113 4835 c-18 -20 -17 -75 1 -75 8 0 17 11 20 25 4 14 13 25 21 25 12 0 15 -20 17 -107 1 -60 1 -138 -1 -175 -1 -38 1 -68 6 -68 4 1 55 67 113 147 128 179 148 203 166 203 7 0 16 -11 20 -25 9 -35 34 -32 34 4 0 50 -9 61 -49 61 -40 0 -81 -23 -81 -46 0 -8 -4 -14 -10 -14 -5 0 -10 -6 -10 -14 0 -8 -7 -16 -15 -20 -8 -3 -15 -12 -15 -20 0 -7 -7 -16 -15 -20 -8 -3 -15 -12 -15 -21 0 -8 -4 -15 -10 -15 -5 0 -10 -6 -10 -14 0 -8 -7 -16 -15 -20 -8 -3 -15 -12 -15 -20 0 -7 -7 -16 -15 -20 -8 -3 -16 -13 -17 -23 -1 -10 -5 45 -8 122 l-5 140 -40 2 c-25 2 -45 -3 -52 -12z"></path><path id="pHi6KEhKX" d="M13987 4844 c-4 -4 -7 -22 -7 -41 0 -37 24 -47 33 -13 8 30 34 24 42 -10 4 -17 13 -30 21 -30 12 0 14 11 12 48 l-3 47 -45 3 c-25 2 -49 0 -53 -4z"></path><path id="pty7lOKZB" d="M13572 4593 l3 -238 138 -3 137 -3 0 51 0 50 -35 0 c-39 0 -49 -24 -14 -33 12 -3 19 -11 17 -17 -2 -8 -37 -12 -103 -12 l-100 0 -3 211 c-2 183 0 211 13 211 8 0 15 5 15 10 0 6 -16 10 -35 10 l-35 0 2 -237z"></path><path id="p78Mj6Jpe" d="M13830 4795 c0 -12 -17 -15 -90 -15 -83 0 -90 -1 -90 -20 0 -19 7 -20 95 -20 l95 0 0 35 c0 19 -2 35 -5 35 -3 0 -5 -7 -5 -15z"></path><path id="pQtRDAgTW" d="M13334 4603 c-158 -226 -186 -254 -200 -198 -9 38 -34 32 -34 -9 0 -30 4 -34 31 -40 60 -12 77 -7 103 27 15 19 26 39 26 44 0 6 7 13 15 17 8 3 15 12 15 21 0 8 5 15 10 15 6 0 10 4 10 9 0 6 11 22 25 37 13 14 30 39 37 55 7 16 16 29 20 29 5 0 8 -51 8 -114 0 -63 3 -121 6 -130 6 -16 41 -21 82 -10 18 5 22 13 22 45 0 48 -25 54 -35 8 -4 -16 -12 -28 -18 -26 -17 5 -24 85 -20 225 2 71 0 122 -5 122 -6 0 -50 -57 -98 -127z"></path><path id="p8ZpYbly2" d="M13480 4605 c0 -118 1 -125 20 -125 19 0 20 7 20 125 0 118 -1 125 -20 125 -19 0 -20 -7 -20 -125z"></path><path id="pKmDxsQdQ" d="M12730 4675 c0 -18 5 -25 20 -25 15 0 20 7 20 25 0 18 -5 25 -20 25 -15 0 -20 -7 -20 -25z"></path><path id="pumPEdgqm" d="M12790 4666 c0 -8 19 -18 46 -25 29 -8 58 -24 75 -43 25 -26 29 -38 29 -88 0 -48 -4 -61 -26 -83 -14 -15 -41 -29 -60 -32 -19 -3 -50 -7 -69 -10 -23 -4 -35 -11 -35 -22 0 -14 10 -15 72 -10 40 4 74 11 76 17 2 5 10 10 18 10 8 0 25 9 37 21 18 17 22 33 26 100 2 53 0 79 -8 79 -6 0 -11 9 -11 20 0 13 -7 20 -20 20 -13 0 -20 7 -20 18 0 24 -40 42 -90 42 -27 0 -40 -4 -40 -14z"></path><path id="pNzYKKVMk" d="M13650 4629 c0 -19 5 -20 68 -19 94 2 95 2 88 -15 -3 -9 0 -15 9 -15 10 0 15 11 15 35 l0 35 -90 0 c-84 0 -90 -1 -90 -21z"></path><path id="p13JljiUyX" d="M12735 4612 c-11 -12 -4 -52 9 -52 48 0 65 44 21 52 -13 3 -27 3 -30 0z"></path><path id="p3Ll4XigI" d="M12800 4593 c0 -10 14 -26 30 -35 24 -14 30 -24 30 -51 0 -31 -3 -35 -42 -46 -30 -10 -43 -10 -46 -2 -2 6 -12 11 -23 11 -23 0 -27 -45 -5 -53 25 -10 115 9 136 28 31 28 28 108 -5 140 -29 30 -75 34 -75 8z"></path><path id="pfo8duGJJ" d="M13645 4561 c-8 -27 5 -71 21 -71 8 0 14 10 14 25 0 16 6 25 15 25 8 0 15 9 15 20 0 28 -56 29 -65 1z"></path><path id="pMaQEX8dF" d="M14055 4506 c-9 -48 -3 -80 18 -84 15 -3 17 5 17 57 0 47 -3 61 -15 61 -8 0 -17 -14 -20 -34z"></path><path id="p3xbCbgiF" d="M13647 4458 c-3 -12 -4 -25 -1 -30 9 -14 44 -9 44 6 0 45 -33 63 -43 24z"></path><path id="p3BzNSLRS" d="M13980 4450 c0 -23 4 -30 20 -30 22 0 23 3 14 38 -9 33 -34 28 -34 -8z"></path><path id="p10pkjNTCZ" d="M13860 4400 l0 -50 155 0 c125 0 155 3 155 14 0 21 -33 26 -167 26 -74 0 -123 4 -123 10 0 5 11 12 25 16 39 10 31 34 -10 34 l-35 0 0 -50z"></path></g></g><g id="l4ZlEJyNP7vb4qLnpMdRrU5" fill="rgb(112,58,77)" style="transform: none;"><g><path id="pH2yrJh09" d="M12682 8544 c-56 -7 -135 -22 -175 -32 -40 -11 -92 -23 -117 -27 -48 -8 -211 -48 -245 -61 -42 -15 -263 -117 -327 -150 -37 -19 -144 -85 -237 -148 -181 -120 -383 -298 -480 -420 -26 -34 -64 -79 -85 -101 -20 -22 -57 -71 -84 -110 -26 -38 -49 -72 -52 -75 -12 -11 -107 -169 -138 -230 -19 -36 -37 -67 -41 -70 -16 -12 -53 -87 -66 -134 -19 -73 -43 -144 -66 -193 -10 -24 -19 -46 -19 -50 0 -5 -16 -39 -35 -78 -45 -92 -61 -180 -76 -410 -10 -175 -9 -205 10 -380 12 -104 28 -217 36 -250 7 -33 21 -102 30 -152 8 -51 27 -132 41 -180 32 -113 139 -328 206 -418 29 -38 75 -111 103 -162 61 -108 119 -176 355 -413 183 -184 214 -209 416 -345 130 -88 159 -103 349 -185 175 -76 235 -95 380 -124 72 -15 168 -36 215 -47 69 -17 115 -21 246 -20 88 0 184 5 213 11 30 5 125 7 225 4 152 -5 186 -3 282 16 60 12 127 30 149 40 51 23 103 43 107 40 2 -1 31 12 64 29 34 17 68 31 76 31 8 0 18 3 22 8 4 4 11 7 14 8 30 2 73 18 83 30 15 19 29 18 29 -3 0 -15 1 -15 18 0 10 10 24 17 31 17 16 0 84 38 156 89 33 22 68 41 78 41 25 0 68 24 92 50 11 12 58 47 105 78 59 38 133 104 240 211 85 86 166 171 179 188 14 18 28 30 33 27 4 -3 8 1 8 9 0 8 8 17 18 19 19 5 94 108 106 143 3 11 17 32 31 47 14 15 25 31 25 36 0 5 7 15 15 22 8 7 12 16 10 21 -3 4 3 26 15 48 11 22 20 51 20 64 0 14 6 30 14 36 8 7 18 25 21 41 4 16 12 28 18 27 6 -1 12 3 12 8 2 25 17 55 25 50 20 -12 82 107 74 141 -4 17 -2 24 9 24 8 0 17 7 21 15 3 9 0 15 -8 15 -8 0 -16 -6 -19 -12 -3 -7 -4 -3 -4 10 1 25 37 53 37 30 0 -9 3 -9 10 2 12 19 13 43 1 35 -16 -9 -22 12 -16 49 7 33 44 60 46 33 0 -7 4 -3 9 8 13 30 12 35 -7 28 -13 -5 -15 -2 -10 11 4 10 7 24 7 33 0 9 6 13 15 9 16 -6 17 -2 19 69 0 22 5 45 9 52 4 7 2 21 -5 32 -13 22 2 89 26 113 16 17 15 545 -2 599 -6 18 -18 86 -27 149 -21 146 -29 182 -72 310 -36 105 -88 222 -141 315 -16 28 -36 73 -45 100 -10 28 -29 63 -43 79 -15 15 -39 53 -55 85 -15 31 -51 84 -81 118 -29 34 -80 94 -113 134 -154 186 -178 210 -269 269 -50 32 -103 74 -118 93 -36 46 -209 168 -289 205 -36 16 -91 45 -121 65 -31 20 -89 49 -130 65 -40 16 -93 39 -118 50 -134 61 -209 84 -400 121 -201 40 -643 53 -868 25z m1084 -715 c8 -6 14 -18 14 -26 0 -12 -6 -13 -27 -7 -16 5 -55 9 -88 9 -104 0 -155 -58 -155 -174 0 -78 18 -121 66 -157 35 -27 44 -29 121 -28 60 1 83 -3 83 -12 0 -16 -53 -34 -99 -34 -154 0 -254 128 -221 285 14 66 55 119 115 147 31 15 55 18 108 14 38 -3 75 -10 83 -17z m-1192 -5 c3 -9 6 -79 7 -157 l1 -142 76 155 c42 85 83 155 90 155 7 0 39 -56 71 -124 31 -69 63 -127 69 -129 18 -6 32 67 32 166 0 84 2 92 19 92 10 0 21 -6 23 -12 9 -28 2 -408 -8 -418 -22 -22 -42 4 -99 127 -74 156 -99 205 -109 206 -5 1 -43 -72 -85 -163 -69 -149 -80 -165 -104 -168 l-27 -3 0 215 c0 205 1 216 19 216 10 0 22 -7 25 -16z m748 -179 c76 -190 91 -245 64 -245 -15 0 -44 56 -86 169 -42 115 -68 171 -78 171 -5 0 -36 -73 -69 -162 -59 -160 -77 -188 -104 -161 -5 5 25 94 66 203 41 107 77 201 80 208 3 7 15 12 27 10 20 -3 34 -31 100 -193z m-607 -551 c157 -40 314 -121 429 -222 20 -17 36 -38 36 -46 0 -20 -69 -78 -83 -70 -7 4 -32 24 -57 44 -177 145 -439 225 -657 200 -232 -26 -403 -109 -569 -274 -143 -142 -226 -323 -244 -531 -5 -56 -7 -114 -5 -131 2 -16 6 -58 10 -93 7 -73 46 -203 80 -271 35 -69 135 -199 191 -249 117 -104 255 -177 396 -211 94 -22 288 -27 397 -9 127 20 313 110 413 198 52 47 61 46 110 -6 l28 -29 -38 -36 c-199 -189 -509 -290 -797 -259 -443 47 -781 335 -892 759 -21 81 -25 121 -26 247 -1 135 1 160 27 255 64 237 180 416 357 549 140 106 335 186 509 211 104 14 272 3 385 -26z m1655 -488 c138 -44 160 -62 160 -132 0 -29 -4 -55 -8 -58 -4 -2 -28 9 -52 25 -96 64 -253 90 -363 60 -56 -16 -127 -75 -162 -135 -20 -34 -55 -159 -55 -197 0 -5 144 -10 348 -11 l347 -3 3 -77 c5 -140 -41 -272 -121 -345 -22 -19 -68 -49 -104 -65 -61 -29 -69 -30 -171 -26 -95 3 -114 7 -175 35 -120 57 -210 170 -242 304 -19 82 -19 236 0 317 38 162 141 276 287 317 64 18 239 13 308 -9z m-1059 -296 c5 -260 8 -302 25 -356 27 -78 63 -131 116 -167 39 -26 49 -28 108 -24 36 3 75 8 88 12 21 7 22 5 22 -54 0 -57 -2 -62 -26 -71 -34 -13 -95 -13 -152 2 -36 9 -61 25 -105 69 -31 32 -61 68 -66 81 -7 17 -10 4 -10 -55 -1 -95 -5 -98 -113 -89 -17 2 -18 32 -18 470 0 258 3 472 7 476 4 4 32 6 63 4 l55 -3 6 -295z m-694 114 c41 -21 90 -55 112 -79 35 -38 40 -50 46 -110 11 -103 1 -233 -23 -287 -28 -65 -85 -123 -150 -155 -50 -24 -68 -28 -147 -28 -78 1 -99 4 -146 28 -73 35 -126 88 -158 156 -23 50 -26 68 -26 166 0 123 15 172 79 249 89 109 266 134 413 60z m2907 -841 c-8 -41 -14 -41 -14 1 0 20 4 35 9 31 5 -3 7 -18 5 -32z m-3570 -831 l30 -63 90 3 91 3 22 55 c23 58 46 82 62 65 6 -6 -17 -80 -63 -200 -85 -223 -91 -235 -116 -235 -15 0 -29 27 -70 133 -28 72 -65 165 -81 204 -49 116 -17 146 35 35z m559 54 c62 -26 87 -82 63 -139 -10 -26 -35 -48 -100 -88 -58 -36 -89 -62 -93 -77 -17 -70 70 -111 160 -76 16 6 18 3 15 -17 -2 -19 -11 -26 -46 -33 -133 -28 -240 102 -151 185 17 15 56 43 87 60 31 18 63 39 70 47 19 25 14 69 -10 92 -20 18 -32 21 -78 17 -30 -3 -66 -8 -79 -13 -19 -6 -22 -4 -19 12 7 41 114 59 181 30z m220 -17 c3 -11 3 -36 0 -54 -3 -19 -3 -45 1 -59 6 -24 11 -26 59 -26 88 0 157 -62 157 -140 0 -83 -50 -120 -175 -128 -82 -5 -84 -4 -90 19 -8 32 0 393 9 407 10 16 33 4 39 -19z m286 18 c15 -19 -10 -53 -33 -44 -16 6 -22 38 -9 50 10 11 30 8 42 -6z m159 -160 c1 -92 6 -167 10 -167 4 1 59 73 122 161 108 151 143 189 158 174 10 -10 19 -124 17 -225 -4 -194 -4 -200 -21 -207 -9 -3 -20 0 -25 8 -5 8 -9 85 -9 173 l0 159 -35 -44 c-19 -24 -74 -100 -123 -169 -72 -103 -92 -125 -112 -125 l-25 0 -3 204 c-2 144 1 208 9 218 28 33 34 5 37 -160z m880 -29 l2 -197 58 -3 c43 -2 57 -7 57 -18 0 -13 -23 -15 -145 -15 -122 0 -145 2 -145 15 0 11 15 16 63 18 l62 3 0 193 c0 106 3 196 7 200 4 4 14 5 23 4 13 -3 15 -32 18 -200z m-228 178 c0 -20 -23 -26 -106 -26 l-74 0 0 -75 0 -74 78 -3 c60 -2 77 -6 77 -18 0 -11 -13 -16 -45 -18 -25 -1 -60 -5 -78 -8 l-33 -5 3 -72 3 -72 83 -3 c74 -3 82 -5 82 -23 0 -19 -6 -20 -107 -17 l-108 3 -3 200 c-1 110 0 205 2 212 8 20 226 18 226 -1z"></path><path id="p18VTT5vw3" d="M13903 6033 c-7 -19 24 -105 57 -156 52 -82 140 -127 248 -127 130 0 212 86 238 249 l7 41 -44 2 c-24 1 -147 2 -273 2 -170 1 -230 -2 -233 -11z"></path><path id="p16HF6tge1" d="M12010 4619 c0 -29 39 -117 55 -123 13 -5 51 62 69 122 7 21 5 22 -58 22 -60 0 -66 -2 -66 -21z"></path><path id="p1HgJ7RN2X" d="M12748 4599 c-14 -8 -18 -24 -18 -79 0 -37 3 -75 6 -84 8 -20 72 -21 118 -2 28 12 35 21 40 53 4 21 3 51 -3 65 -18 47 -99 73 -143 47z"></path><path id="pPb4iVpBV" d="M15492 5370 c-6 -10 -8 -21 -3 -24 5 -3 11 4 14 16 8 29 4 32 -11 8z"></path></g></g></svg>