<?xml version="1.0" encoding="utf-8"?>
<!-- Generator: Adobe Illustrator 21.1.0, SVG Export Plug-In . SVG Version: 6.00 Build 0)  -->
<svg version="1.1" id="Layer_1" xmlns="http://www.w3.org/2000/svg" xmlns:xlink="http://www.w3.org/1999/xlink" x="0px" y="0px"
	 viewBox="0 0 50 39" style="enable-background:new 0 0 50 39;" xml:space="preserve">
<path d="M45.8,7.3H4.3C2.5,7.3,1,5.8,1,4v0c0-1.8,1.5-3.2,3.2-3.2h41.5C47.6,0.8,49,2.2,49,4v0C49,5.8,47.6,7.3,45.8,7.3z"/>
<path d="M26.2,24.1H4.3c-1.8,0-3.2-1.5-3.2-3.2v0c0-1.8,1.5-3.2,3.2-3.2h21.9c1.8,0,3.2,1.5,3.2,3.2v0C29.4,22.7,28,24.1,26.2,24.1z
	"/>
<path d="M33.8,38.4H4.3C2.5,38.4,1,37,1,35.2v0c0-1.8,1.5-3.2,3.2-3.2h29.5c1.8,0,3.2,1.5,3.2,3.2v0C37,37,35.5,38.4,33.8,38.4z"/>
</svg>
