<svg xmlns="http://www.w3.org/2000/svg" width="20" height="20" viewBox="0 0 20 20"><defs><style>.a{fill:#2d2926;}.b{fill:none;}</style></defs><g transform="translate(-1106 -40)"><path class="a" d="M11.393-46.826a3.482,3.482,0,0,1,2.222.626,3.251,3.251,0,0,1,1.017,1.377,3.957,3.957,0,0,1,.266,1.455q-.031.688-.047.86a8.2,8.2,0,0,1-.516,2,4.239,4.239,0,0,1-.814,1.283,2.752,2.752,0,0,1-1.017.688,3.168,3.168,0,0,1-1.158.219,2.752,2.752,0,0,1-1.158-.25,3.066,3.066,0,0,1-.993-.79,4.553,4.553,0,0,1-.759-1.353,7.4,7.4,0,0,1-.454-1.956,3.977,3.977,0,0,1,.329-2.488,3.319,3.319,0,0,1,1.2-1.22,3.188,3.188,0,0,1,1.275-.422ZM8.671-38.691l.688.6a3.142,3.142,0,0,0,2.112.6,3.125,3.125,0,0,0,1.838-.5,4.306,4.306,0,0,0,.868-.72l.141.078a3.021,3.021,0,0,0,.391.172q.156.063.352.125t.415.156q.313.125.7.266a1.542,1.542,0,0,1,.735.751,5.559,5.559,0,0,1,.563,1.611,18.817,18.817,0,0,1,.344,2.738,1.844,1.844,0,0,1-.023.43.5.5,0,0,1-.336.383,4.866,4.866,0,0,1-.688.25q-.532.172-1.322.36t-1.791.344a16.16,16.16,0,0,1-2.065.188,9.074,9.074,0,0,1-.986-.031q-.673-.047-1.518-.172T7.309-31.4a14.632,14.632,0,0,1-1.815-.548.7.7,0,0,1-.375-.266.935.935,0,0,1-.094-.532q.031-.36.149-1.486a11.392,11.392,0,0,1,.415-2.112,3.788,3.788,0,0,1,.36-.814,1.789,1.789,0,0,1,.845-.8q.266-.125,1.025-.391A4.876,4.876,0,0,0,8.671-38.691Z" transform="translate(1104.39 88.826)"/><rect class="b" width="20" height="20" transform="translate(1106 40)"/></g></svg>