<svg xmlns="http://www.w3.org/2000/svg" width="28" height="28" viewBox="0 0 28 28"><defs><style>.a{fill:#cbc4bc;}.b{fill:#2d2926;}.c{fill:none;}</style></defs><g transform="translate(1.625 1)"><path class="a" d="M13.4-21.246a12.1,12.1,0,0,1-4.862-.983,12.61,12.61,0,0,1-3.993-2.683,12.61,12.61,0,0,1-2.683-3.993,12.1,12.1,0,0,1-.983-4.862,12.1,12.1,0,0,1,.983-4.862,12.61,12.61,0,0,1,2.683-3.993,12.61,12.61,0,0,1,3.993-2.683,12.1,12.1,0,0,1,4.862-.983,12.1,12.1,0,0,1,4.862.983,12.61,12.61,0,0,1,3.993,2.683,12.61,12.61,0,0,1,2.683,3.993,12.1,12.1,0,0,1,.983,4.862,12.1,12.1,0,0,1-.983,4.862,12.61,12.61,0,0,1-2.683,3.993,12.61,12.61,0,0,1-3.993,2.683A12.1,12.1,0,0,1,13.4-21.246Zm0-23.481a10.655,10.655,0,0,0-4.258.857A11.392,11.392,0,0,0,5.666-41.5,11.392,11.392,0,0,0,3.3-38.025a10.655,10.655,0,0,0-.857,4.258A10.655,10.655,0,0,0,3.3-29.51a11.307,11.307,0,0,0,2.368,3.5,11.033,11.033,0,0,0,3.477,2.343,10.655,10.655,0,0,0,4.258.857,10.655,10.655,0,0,0,4.258-.857,10.957,10.957,0,0,0,3.5-2.343,10.957,10.957,0,0,0,2.343-3.5,10.655,10.655,0,0,0,.857-4.258,10.655,10.655,0,0,0-.857-4.258A11.033,11.033,0,0,0,21.16-41.5a11.307,11.307,0,0,0-3.5-2.368A10.655,10.655,0,0,0,13.4-44.727Z" transform="translate(-0.879 46.289)"/><path class="b" d="M9.445-30.114l3.477-3.578L9.445-37.27l1.36-1.386,4.837,4.963-4.837,4.963Z" transform="translate(0.834 46.289)"/><rect class="c" width="28" height="28" transform="translate(-1.625 -1)"/></g></svg>