<svg xmlns="http://www.w3.org/2000/svg" xmlns:xlink="http://www.w3.org/1999/xlink" viewBox="0 0 500 500" version="1.1" id="svg_null"><g id="root" stroke="none" stroke-width="1" fill="none" fill-rule="evenodd"><rect id="background" fill="#FFF" x="0" y="0" width="500" height="500"></rect><path d="M265 381.988l-7.5 7.493l1.5 10.49l-9 -4.496l-9 4.525l1.5 -10.519l-7.5 -7.493l10.5 -1.498l4.5 -10.49l4.5 10.49l10.5 1.498zm-50 0l-7.5 7.493l1.5 10.49l-9 -4.496l-9 4.525l1.5 -10.519l-7.5 -7.493l10.5 -1.498l4.5 -10.49l4.5 10.49l10.5 1.498zm100 0l-7.5 7.493l1.5 10.49l-9 -4.496l-9 4.525l1.5 -10.519l-7.5 -7.493l10.5 -1.498l4.5 -10.49l4.5 10.49l10.5 1.498z" id="shape.primary" fill="#f44336" fill-rule="nonzero"></path><path d="M444.856 257.156l0 0.014c-0.04 1.07 -0.084 2.138 -0.14 3.206c-0.043 0.833 -0.094 1.664 -0.15 2.495l0 0.007c-0.042 0.65 -0.093 1.297 -0.14 1.946c-0.09 1.175 -0.181 2.35 -0.291 3.52l0 0.002c-0.058 0.626 -0.126 1.25 -0.19 1.873c-0.12 1.166 -0.243 2.332 -0.383 3.494c-0.13 1.067 -0.272 2.132 -0.418 3.196c-0.002 0.001 -0.002 0.002 -0.002 0.003c-0.096 0.698 -0.188 1.397 -0.293 2.094l0 0.001c-0.173 1.166 -0.364 2.328 -0.56 3.49c0 0.005 -0.001 0.011 -0.002 0.016c-0.227 1.351 -0.472 2.698 -0.727 4.041c-0.178 0.937 -0.346 1.876 -0.536 2.81c0 0.001 0 0.002 0 0.003c-0.387 1.884 -0.8 3.763 -1.24 5.633l-0.012 0l-5.147 0l-2.06 0l-8.236 0l-5.18 0l-338.298 0l-5.18 0l-8.237 0l-2.058 0l-5.148 0l-0.011 0c-0.441 -1.87 -0.855 -3.749 -1.24 -5.633c0 0 0 -0.002 -0.002 -0.003c-0.19 -0.934 -0.358 -1.873 -0.535 -2.81c-0.255 -1.343 -0.5 -2.69 -0.726 -4.04c-0.002 -0.006 -0.002 -0.012 -0.003 -0.017c-0.195 -1.162 -0.386 -2.324 -0.56 -3.49c-0.105 -0.697 -0.197 -1.395 -0.294 -2.093l0 -0.003c-0.148 -1.066 -0.29 -2.132 -0.42 -3.2l0 -0.002c-0.087 -0.729 -0.17 -1.459 -0.25 -2.19l0 -0.002c-0.04 -0.365 -0.072 -0.732 -0.11 -1.099c-0.194 -1.86 -0.362 -3.725 -0.502 -5.594c-0.047 -0.649 -0.099 -1.297 -0.142 -1.946l0 -0.007c-0.054 -0.83 -0.105 -1.662 -0.15 -2.495c-0.055 -1.068 -0.1 -2.137 -0.139 -3.206l0 -0.014c-0.085 -2.38 -0.143 -4.764 -0.143 -7.156c0 -2.393 0.058 -4.777 0.144 -7.157l0 -0.013c0.038 -1.07 0.083 -2.139 0.138 -3.206c0.044 -0.833 0.096 -1.664 0.15 -2.495l0 -0.007c0.044 -0.65 0.095 -1.297 0.142 -1.946c0.222 -2.973 0.505 -5.935 0.862 -8.882l0 -0.005c0.12 -0.974 0.25 -1.945 0.383 -2.915c0.108 -0.794 0.212 -1.589 0.33 -2.38l0 0c0.175 -1.167 0.366 -2.329 0.56 -3.49c0.002 -0.006 0.002 -0.012 0.004 -0.018c0.227 -1.35 0.471 -2.697 0.727 -4.04c0.176 -0.937 0.344 -1.877 0.534 -2.81c0.002 0 0.002 -0.002 0.002 -0.003c0.386 -1.884 0.799 -3.763 1.24 -5.633l0.011 0l5.148 0l2.058 0l8.237 0l5.18 0l338.298 0l5.18 0l8.236 0l2.06 0l5.147 0l0.012 0c0.44 1.87 0.853 3.75 1.24 5.633c0 0.001 0 0.002 0 0.002c0.19 0.934 0.358 1.874 0.536 2.81c0.255 1.344 0.5 2.69 0.726 4.041c0.002 0.006 0.002 0.012 0.003 0.017c0.196 1.162 0.387 2.324 0.56 3.49c0.464 3.108 0.841 6.234 1.154 9.373c0.043 0.43 0.091 0.857 0.132 1.287l0 0.004c0.11 1.171 0.202 2.345 0.29 3.52c0.048 0.648 0.099 1.295 0.142 1.945l0 0.007c0.055 0.831 0.106 1.662 0.15 2.495c0.055 1.067 0.1 2.136 0.139 3.206l0 0.013c0.086 2.38 0.144 4.764 0.144 7.157c0 2.392 -0.058 4.776 -0.144 7.156m-362.587 42.844l335.462 0c-21.515 72.283 -88.459 125 -167.73 125c-79.274 0 -146.217 -52.717 -167.732 -125m167.731 130c82.06 0 151.288 -54.916 172.955 -130l8.298 0c-21.895 79.554 -94.74 138 -181.252 138c-86.514 0 -159.359 -58.446 -181.255 -138l8.299 0c21.668 75.084 90.895 130 172.955 130m0 15c-90.41 0 -166.431 -61.533 -188.512 -145l5.183 0c21.953 80.673 95.703 140 183.33 140c87.626 0 161.376 -59.327 183.328 -140l5.183 0c-22.08 83.467 -98.103 145 -188.512 145m167.731 -245l-335.462 0c21.515 -72.283 88.458 -125 167.731 -125c79.272 0 146.216 52.717 167.731 125m-167.73 -130c-82.061 0 -151.288 54.916 -172.957 130l-8.297 0c21.895 -79.555 94.74 -138 181.253 -138c86.514 0 159.358 58.445 181.253 138l-8.298 0c-21.667 -75.084 -90.894 -130 -172.954 -130m0 -15c90.408 0 166.43 61.533 188.51 145l-5.183 0c-21.951 -80.673 -95.701 -140 -183.327 -140c-87.627 0 -161.377 59.327 -183.33 140l-5.183 0c22.08 -83.467 98.102 -145 188.512 -145m199.906 189.1c-0.017 -0.613 -0.046 -1.222 -0.07 -1.833c-0.05 -1.368 -0.115 -2.733 -0.194 -4.093c-0.04 -0.682 -0.082 -1.362 -0.128 -2.04c-0.094 -1.362 -0.204 -2.717 -0.324 -4.07c-0.053 -0.597 -0.1 -1.197 -0.159 -1.793c-0.189 -1.925 -0.397 -3.843 -0.639 -5.75c-0.002 -0.009 -0.002 -0.018 -0.003 -0.027c-0.243 -1.9 -0.517 -3.788 -0.813 -5.67c-0.091 -0.589 -0.195 -1.174 -0.29 -1.76c-0.22 -1.323 -0.45 -2.642 -0.695 -3.956c-0.122 -0.652 -0.247 -1.303 -0.375 -1.952c-0.257 -1.31 -0.53 -2.617 -0.814 -3.919c-0.125 -0.573 -0.243 -1.147 -0.373 -1.719c-0.42 -1.846 -0.858 -3.685 -1.329 -5.512c0 -0.002 0 -0.004 0 -0.006c-22.202 -86.26 -100.508 -150 -193.7 -150c-93.192 0 -171.498 63.74 -193.7 150c0 0.002 0 0.004 0 0.006c-0.47 1.826 -0.908 3.665 -1.328 5.51c-0.13 0.574 -0.25 1.152 -0.376 1.728c-0.282 1.298 -0.554 2.6 -0.813 3.91c-0.127 0.65 -0.252 1.304 -0.375 1.958c-0.244 1.31 -0.473 2.623 -0.691 3.94c-0.097 0.592 -0.201 1.182 -0.294 1.776c-0.294 1.875 -0.568 3.756 -0.809 5.647c-0.002 0.016 -0.005 0.033 -0.006 0.048c-0.242 1.906 -0.45 3.822 -0.64 5.745c-0.058 0.6 -0.106 1.201 -0.16 1.801c-0.118 1.351 -0.227 2.704 -0.322 4.063c-0.045 0.68 -0.088 1.36 -0.128 2.042c-0.08 1.36 -0.143 2.725 -0.194 4.093c-0.025 0.611 -0.053 1.22 -0.07 1.832c-0.058 1.961 -0.093 3.926 -0.093 5.901c0 1.974 0.035 3.94 0.093 5.9c0.017 0.612 0.045 1.222 0.07 1.832c0.05 1.368 0.114 2.734 0.194 4.094c0.04 0.682 0.083 1.362 0.129 2.042c0.093 1.358 0.203 2.712 0.322 4.062c0.053 0.601 0.102 1.203 0.16 1.801c0.188 1.923 0.396 3.84 0.639 5.745c0.002 0.016 0.005 0.033 0.007 0.048c0.24 1.892 0.514 3.773 0.807 5.648c0.094 0.593 0.198 1.183 0.295 1.775c0.218 1.317 0.447 2.632 0.691 3.94c0.123 0.655 0.248 1.308 0.375 1.96c0.258 1.308 0.53 2.611 0.813 3.91c0.126 0.575 0.246 1.153 0.377 1.726c0.419 1.846 0.858 3.685 1.327 5.511c0 0.002 0 0.004 0 0.006c22.203 86.261 100.508 150 193.7 150c93.192 0 171.498 -63.739 193.7 -150c0 -0.002 0 -0.004 0 -0.006c0.47 -1.827 0.909 -3.666 1.329 -5.513c0.13 -0.57 0.248 -1.145 0.373 -1.719c0.284 -1.3 0.558 -2.608 0.815 -3.919c0.127 -0.649 0.252 -1.299 0.374 -1.952c0.245 -1.313 0.474 -2.632 0.695 -3.955c0.096 -0.587 0.199 -1.172 0.29 -1.759c0.296 -1.883 0.57 -3.772 0.813 -5.67c0 -0.01 0.001 -0.02 0.003 -0.029c0.243 -1.907 0.45 -3.825 0.64 -5.75c0.058 -0.595 0.106 -1.195 0.159 -1.793c0.12 -1.352 0.229 -2.708 0.323 -4.068c0.046 -0.68 0.089 -1.359 0.128 -2.04c0.08 -1.36 0.144 -2.727 0.195 -4.095c0.024 -0.61 0.052 -1.22 0.07 -1.832c0.057 -1.96 0.094 -3.926 0.094 -5.9c0 -1.975 -0.037 -3.94 -0.094 -5.9" id="shape.primary" fill="#f44336"></path><g id="Group" transform="translate(80.000000, 220.000000)"><rect id="Rectangle-3" x="0" y="0" width="340" height="60"></rect><text id="headerText.primary" font-family="Tinos" font-size="37.71587686315794" font-weight="700" letter-spacing="4.190652984795326" fill="#f44336" data-text-alignment="C" font-style="normal"><tspan x="3.9308013916015625" y="39">Johnny's Burger</tspan></text></g><g id="Group-2" transform="translate(120.000000, 321.000000)"><rect id="Rectangle" x="0" y="0" width="260" height="30"></rect><text id="captionText.primary" font-family="Tinos" font-size="24" font-weight="400" letter-spacing="6" fill="#f44336" data-text-alignment="C" font-style="normal"><tspan x="130" y="135"></tspan></text></g><rect id="icon.primary" x="210" y="100" width="80" height="80" display="none" fill="#f44336"></rect><svg xmlns="http://www.w3.org/2000/svg" xmlns:xlink="http://www.w3.org/1999/xlink" viewBox="0 0 26 26" version="1.1" fill="#f44336" id="svg_icon.primary" x="210" y="100" width="80" height="80"><g id="surface1"><path style=" " d="M 7.1875 0 C 6.839844 0.0703125 6.554688 0.320313 6.4375 0.65625 C 6.4375 0.65625 5.125 4.339844 5.125 9.75 C 5.125 13.265625 8.261719 16.433594 12 16.9375 L 12 22.90625 C 10.292969 24.394531 7 25 7 25 C 6.449219 25 6 25.453125 6 26 L 20 26 C 20 25.449219 19.550781 25 19 25 C 19 25 15.707031 24.394531 14 22.90625 L 14 16.9375 C 15.722656 16.691406 17.269531 15.804688 18.46875 14.65625 C 19.890625 13.296875 20.875 11.554688 20.875 9.75 C 20.875 4.34375 19.59375 0.65625 19.59375 0.65625 C 19.449219 0.261719 19.074219 0 18.65625 0 L 7.375 0 C 7.34375 0 7.3125 0 7.28125 0 C 7.25 0 7.21875 0 7.1875 0 Z M 8.15625 2 L 17.875 2 C 17.976563 2.328125 18.15625 3.046875 18.34375 4 L 9.96875 4 C 9.96875 4 9.03125 6.40625 9.03125 10.375 C 9.03125 12.398438 10.867188 14.425781 13.09375 14.96875 C 13 14.964844 12.902344 14.976563 12.8125 15 C 12.800781 15 12.792969 15 12.78125 15 C 9.859375 14.851563 7.125 12.113281 7.125 9.75 C 7.125 5.386719 7.90625 2.785156 8.15625 2 Z "></path></g></svg></g></svg>