<svg xmlns="http://www.w3.org/2000/svg" width="50" height="50" viewBox="0 0 50 50"><defs><style>.a{fill:#2d2926;}.b{fill:none;}</style></defs><g transform="translate(-1211 -38)"><path class="a" d="M41.237-38.886q-.041.5-.579,4.505t-1.2,8.969q-.661,4.96-1.323,9.589t-.951,6.365q-.5,3.017-2.521,3.451t-3.017.6q-.5.083-1.9.207-1.405.083-3.017.186t-3.1.145q-1.488.083-2.191.083t-2.025-.083q-1.281-.041-2.893-.145t-3.348-.227q-1.736-.165-3.307-.289Q6.723-5.861,6.207-7.349L5.69-8.837,1.308-38.721Q.9-41.036,3.623-42.751a21.606,21.606,0,0,1,6.613-2.625A25.7,25.7,0,0,1,13.585-46q1.736-.248,3.265-.372t2.769-.124q1.2-.041,1.819-.041a53.3,53.3,0,0,1,11.367,1.2A20.964,20.964,0,0,1,38.716-43a4.931,4.931,0,0,1,2.232,2.459A5.614,5.614,0,0,1,41.237-38.886ZM21.521-43.971a53.809,53.809,0,0,0-6.489.372,34.007,34.007,0,0,0-5.27.951A12.958,12.958,0,0,0,6.227-41.2Q4.9-40.416,4.9-39.465q0,.909,1.323,1.736a12.958,12.958,0,0,0,3.534,1.447,34.006,34.006,0,0,0,5.27.951,53.808,53.808,0,0,0,6.489.372,52.78,52.78,0,0,0,6.448-.372,34.006,34.006,0,0,0,5.27-.951,12.958,12.958,0,0,0,3.534-1.447q1.323-.827,1.323-1.736,0-.951-1.323-1.736a12.958,12.958,0,0,0-3.534-1.447,34.007,34.007,0,0,0-5.27-.951A52.782,52.782,0,0,0,21.521-43.971Z" transform="translate(1215.383 88.717)"/><rect class="b" width="50" height="50" transform="translate(1211 38)"/></g></svg>